<svg width="609" height="648" viewBox="0 0 609 648" fill="none" xmlns="http://www.w3.org/2000/svg">
<circle cx="104" cy="646" r="1.66667" transform="rotate(180 104 646)" fill="#005277" style="fill:#005277;fill:color(display-p3 0.0000 0.3216 0.4667);fill-opacity:1;"/>
<circle cx="104" cy="631.333" r="1.66667" transform="rotate(180 104 631.333)" fill="#005277" style="fill:#005277;fill:color(display-p3 0.0000 0.3216 0.4667);fill-opacity:1;"/>
<circle cx="104" cy="616.667" r="1.66667" transform="rotate(180 104 616.667)" fill="#005277" style="fill:#005277;fill:color(display-p3 0.0000 0.3216 0.4667);fill-opacity:1;"/>
<circle cx="104" cy="602" r="1.66667" transform="rotate(180 104 602)" fill="#005277" style="fill:#005277;fill:color(display-p3 0.0000 0.3216 0.4667);fill-opacity:1;"/>
<circle cx="104" cy="587.333" r="1.66667" transform="rotate(180 104 587.333)" fill="#005277" style="fill:#005277;fill:color(display-p3 0.0000 0.3216 0.4667);fill-opacity:1;"/>
<circle cx="104" cy="559" r="1.66667" transform="rotate(180 104 559)" fill="#005277" style="fill:#005277;fill:color(display-p3 0.0000 0.3216 0.4667);fill-opacity:1;"/>
<circle cx="104" cy="530" r="1.66667" transform="rotate(180 104 530)" fill="#005277" style="fill:#005277;fill:color(display-p3 0.0000 0.3216 0.4667);fill-opacity:1;"/>
<circle cx="104" cy="573" r="1.66667" transform="rotate(180 104 573)" fill="#005277" style="fill:#005277;fill:color(display-p3 0.0000 0.3216 0.4667);fill-opacity:1;"/>
<circle cx="104" cy="544.667" r="1.66667" transform="rotate(180 104 544.667)" fill="#005277" style="fill:#005277;fill:color(display-p3 0.0000 0.3216 0.4667);fill-opacity:1;"/>
<circle cx="104" cy="515.667" r="1.66667" transform="rotate(180 104 515.667)" fill="#005277" style="fill:#005277;fill:color(display-p3 0.0000 0.3216 0.4667);fill-opacity:1;"/>
<circle cx="89.3333" cy="646" r="1.66667" transform="rotate(180 89.3333 646)" fill="#005277" style="fill:#005277;fill:color(display-p3 0.0000 0.3216 0.4667);fill-opacity:1;"/>
<circle cx="89.3333" cy="631.333" r="1.66667" transform="rotate(180 89.3333 631.333)" fill="#005277" style="fill:#005277;fill:color(display-p3 0.0000 0.3216 0.4667);fill-opacity:1;"/>
<circle cx="89.3333" cy="616.667" r="1.66667" transform="rotate(180 89.3333 616.667)" fill="#005277" style="fill:#005277;fill:color(display-p3 0.0000 0.3216 0.4667);fill-opacity:1;"/>
<circle cx="89.3333" cy="602" r="1.66667" transform="rotate(180 89.3333 602)" fill="#005277" style="fill:#005277;fill:color(display-p3 0.0000 0.3216 0.4667);fill-opacity:1;"/>
<circle cx="89.3333" cy="587.333" r="1.66667" transform="rotate(180 89.3333 587.333)" fill="#005277" style="fill:#005277;fill:color(display-p3 0.0000 0.3216 0.4667);fill-opacity:1;"/>
<circle cx="89.3333" cy="559" r="1.66667" transform="rotate(180 89.3333 559)" fill="#005277" style="fill:#005277;fill:color(display-p3 0.0000 0.3216 0.4667);fill-opacity:1;"/>
<circle cx="89.3333" cy="530" r="1.66667" transform="rotate(180 89.3333 530)" fill="#005277" style="fill:#005277;fill:color(display-p3 0.0000 0.3216 0.4667);fill-opacity:1;"/>
<circle cx="89.3333" cy="573" r="1.66667" transform="rotate(180 89.3333 573)" fill="#005277" style="fill:#005277;fill:color(display-p3 0.0000 0.3216 0.4667);fill-opacity:1;"/>
<circle cx="89.3333" cy="544.667" r="1.66667" transform="rotate(180 89.3333 544.667)" fill="#005277" style="fill:#005277;fill:color(display-p3 0.0000 0.3216 0.4667);fill-opacity:1;"/>
<circle cx="89.3333" cy="515.667" r="1.66667" transform="rotate(180 89.3333 515.667)" fill="#005277" style="fill:#005277;fill:color(display-p3 0.0000 0.3216 0.4667);fill-opacity:1;"/>
<circle cx="74.6673" cy="646" r="1.66667" transform="rotate(180 74.6673 646)" fill="#005277" style="fill:#005277;fill:color(display-p3 0.0000 0.3216 0.4667);fill-opacity:1;"/>
<circle cx="31.0003" cy="646" r="1.66667" transform="rotate(180 31.0003 646)" fill="#005277" style="fill:#005277;fill:color(display-p3 0.0000 0.3216 0.4667);fill-opacity:1;"/>
<circle cx="74.6673" cy="631.333" r="1.66667" transform="rotate(180 74.6673 631.333)" fill="#005277" style="fill:#005277;fill:color(display-p3 0.0000 0.3216 0.4667);fill-opacity:1;"/>
<circle cx="31.0003" cy="631.333" r="1.66667" transform="rotate(180 31.0003 631.333)" fill="#005277" style="fill:#005277;fill:color(display-p3 0.0000 0.3216 0.4667);fill-opacity:1;"/>
<circle cx="74.6673" cy="616.667" r="1.66667" transform="rotate(180 74.6673 616.667)" fill="#005277" style="fill:#005277;fill:color(display-p3 0.0000 0.3216 0.4667);fill-opacity:1;"/>
<circle cx="31.0003" cy="616.667" r="1.66667" transform="rotate(180 31.0003 616.667)" fill="#005277" style="fill:#005277;fill:color(display-p3 0.0000 0.3216 0.4667);fill-opacity:1;"/>
<circle cx="74.6673" cy="602" r="1.66667" transform="rotate(180 74.6673 602)" fill="#005277" style="fill:#005277;fill:color(display-p3 0.0000 0.3216 0.4667);fill-opacity:1;"/>
<circle cx="31.0003" cy="602" r="1.66667" transform="rotate(180 31.0003 602)" fill="#005277" style="fill:#005277;fill:color(display-p3 0.0000 0.3216 0.4667);fill-opacity:1;"/>
<circle cx="74.6663" cy="587.333" r="1.66667" transform="rotate(180 74.6663 587.333)" fill="#005277" style="fill:#005277;fill:color(display-p3 0.0000 0.3216 0.4667);fill-opacity:1;"/>
<circle cx="31.0003" cy="587.333" r="1.66667" transform="rotate(180 31.0003 587.333)" fill="#005277" style="fill:#005277;fill:color(display-p3 0.0000 0.3216 0.4667);fill-opacity:1;"/>
<circle cx="74.6663" cy="559" r="1.66667" transform="rotate(180 74.6663 559)" fill="#005277" style="fill:#005277;fill:color(display-p3 0.0000 0.3216 0.4667);fill-opacity:1;"/>
<circle cx="31.0003" cy="559" r="1.66667" transform="rotate(180 31.0003 559)" fill="#005277" style="fill:#005277;fill:color(display-p3 0.0000 0.3216 0.4667);fill-opacity:1;"/>
<circle cx="74.6663" cy="530" r="1.66667" transform="rotate(180 74.6663 530)" fill="#005277" style="fill:#005277;fill:color(display-p3 0.0000 0.3216 0.4667);fill-opacity:1;"/>
<circle cx="31.0003" cy="530" r="1.66667" transform="rotate(180 31.0003 530)" fill="#005277" style="fill:#005277;fill:color(display-p3 0.0000 0.3216 0.4667);fill-opacity:1;"/>
<circle cx="74.6663" cy="573" r="1.66667" transform="rotate(180 74.6663 573)" fill="#005277" style="fill:#005277;fill:color(display-p3 0.0000 0.3216 0.4667);fill-opacity:1;"/>
<circle cx="31.0003" cy="573" r="1.66667" transform="rotate(180 31.0003 573)" fill="#005277" style="fill:#005277;fill:color(display-p3 0.0000 0.3216 0.4667);fill-opacity:1;"/>
<circle cx="74.6663" cy="544.667" r="1.66667" transform="rotate(180 74.6663 544.667)" fill="#005277" style="fill:#005277;fill:color(display-p3 0.0000 0.3216 0.4667);fill-opacity:1;"/>
<circle cx="31.0003" cy="544.667" r="1.66667" transform="rotate(180 31.0003 544.667)" fill="#005277" style="fill:#005277;fill:color(display-p3 0.0000 0.3216 0.4667);fill-opacity:1;"/>
<circle cx="74.6663" cy="515.667" r="1.66667" transform="rotate(180 74.6663 515.667)" fill="#005277" style="fill:#005277;fill:color(display-p3 0.0000 0.3216 0.4667);fill-opacity:1;"/>
<circle cx="31.0003" cy="515.667" r="1.66667" transform="rotate(180 31.0003 515.667)" fill="#005277" style="fill:#005277;fill:color(display-p3 0.0000 0.3216 0.4667);fill-opacity:1;"/>
<circle cx="60.0003" cy="646" r="1.66667" transform="rotate(180 60.0003 646)" fill="#005277" style="fill:#005277;fill:color(display-p3 0.0000 0.3216 0.4667);fill-opacity:1;"/>
<circle cx="16.3333" cy="646" r="1.66667" transform="rotate(180 16.3333 646)" fill="#005277" style="fill:#005277;fill:color(display-p3 0.0000 0.3216 0.4667);fill-opacity:1;"/>
<circle cx="60.0003" cy="631.333" r="1.66667" transform="rotate(180 60.0003 631.333)" fill="#005277" style="fill:#005277;fill:color(display-p3 0.0000 0.3216 0.4667);fill-opacity:1;"/>
<circle cx="16.3333" cy="631.333" r="1.66667" transform="rotate(180 16.3333 631.333)" fill="#005277" style="fill:#005277;fill:color(display-p3 0.0000 0.3216 0.4667);fill-opacity:1;"/>
<circle cx="60.0003" cy="616.667" r="1.66667" transform="rotate(180 60.0003 616.667)" fill="#005277" style="fill:#005277;fill:color(display-p3 0.0000 0.3216 0.4667);fill-opacity:1;"/>
<circle cx="16.3333" cy="616.667" r="1.66667" transform="rotate(180 16.3333 616.667)" fill="#005277" style="fill:#005277;fill:color(display-p3 0.0000 0.3216 0.4667);fill-opacity:1;"/>
<circle cx="60.0003" cy="602" r="1.66667" transform="rotate(180 60.0003 602)" fill="#005277" style="fill:#005277;fill:color(display-p3 0.0000 0.3216 0.4667);fill-opacity:1;"/>
<circle cx="16.3333" cy="602" r="1.66667" transform="rotate(180 16.3333 602)" fill="#005277" style="fill:#005277;fill:color(display-p3 0.0000 0.3216 0.4667);fill-opacity:1;"/>
<circle cx="60.0003" cy="587.333" r="1.66667" transform="rotate(180 60.0003 587.333)" fill="#005277" style="fill:#005277;fill:color(display-p3 0.0000 0.3216 0.4667);fill-opacity:1;"/>
<circle cx="16.3333" cy="587.333" r="1.66667" transform="rotate(180 16.3333 587.333)" fill="#005277" style="fill:#005277;fill:color(display-p3 0.0000 0.3216 0.4667);fill-opacity:1;"/>
<circle cx="60.0003" cy="559" r="1.66667" transform="rotate(180 60.0003 559)" fill="#005277" style="fill:#005277;fill:color(display-p3 0.0000 0.3216 0.4667);fill-opacity:1;"/>
<circle cx="16.3333" cy="559" r="1.66667" transform="rotate(180 16.3333 559)" fill="#005277" style="fill:#005277;fill:color(display-p3 0.0000 0.3216 0.4667);fill-opacity:1;"/>
<circle cx="60.0003" cy="530" r="1.66667" transform="rotate(180 60.0003 530)" fill="#005277" style="fill:#005277;fill:color(display-p3 0.0000 0.3216 0.4667);fill-opacity:1;"/>
<circle cx="16.3333" cy="530" r="1.66667" transform="rotate(180 16.3333 530)" fill="#005277" style="fill:#005277;fill:color(display-p3 0.0000 0.3216 0.4667);fill-opacity:1;"/>
<circle cx="60.0003" cy="573" r="1.66667" transform="rotate(180 60.0003 573)" fill="#005277" style="fill:#005277;fill:color(display-p3 0.0000 0.3216 0.4667);fill-opacity:1;"/>
<circle cx="16.3333" cy="573" r="1.66667" transform="rotate(180 16.3333 573)" fill="#005277" style="fill:#005277;fill:color(display-p3 0.0000 0.3216 0.4667);fill-opacity:1;"/>
<circle cx="60.0003" cy="544.667" r="1.66667" transform="rotate(180 60.0003 544.667)" fill="#005277" style="fill:#005277;fill:color(display-p3 0.0000 0.3216 0.4667);fill-opacity:1;"/>
<circle cx="16.3333" cy="544.667" r="1.66667" transform="rotate(180 16.3333 544.667)" fill="#005277" style="fill:#005277;fill:color(display-p3 0.0000 0.3216 0.4667);fill-opacity:1;"/>
<circle cx="60.0003" cy="515.667" r="1.66667" transform="rotate(180 60.0003 515.667)" fill="#005277" style="fill:#005277;fill:color(display-p3 0.0000 0.3216 0.4667);fill-opacity:1;"/>
<circle cx="16.3333" cy="515.667" r="1.66667" transform="rotate(180 16.3333 515.667)" fill="#005277" style="fill:#005277;fill:color(display-p3 0.0000 0.3216 0.4667);fill-opacity:1;"/>
<circle cx="45.3333" cy="646" r="1.66667" transform="rotate(180 45.3333 646)" fill="#005277" style="fill:#005277;fill:color(display-p3 0.0000 0.3216 0.4667);fill-opacity:1;"/>
<circle cx="1.66732" cy="646" r="1.66667" transform="rotate(180 1.66732 646)" fill="#005277" style="fill:#005277;fill:color(display-p3 0.0000 0.3216 0.4667);fill-opacity:1;"/>
<circle cx="45.3333" cy="631.333" r="1.66667" transform="rotate(180 45.3333 631.333)" fill="#005277" style="fill:#005277;fill:color(display-p3 0.0000 0.3216 0.4667);fill-opacity:1;"/>
<circle cx="1.66634" cy="631.333" r="1.66667" transform="rotate(180 1.66634 631.333)" fill="#005277" style="fill:#005277;fill:color(display-p3 0.0000 0.3216 0.4667);fill-opacity:1;"/>
<circle cx="45.3333" cy="616.667" r="1.66667" transform="rotate(180 45.3333 616.667)" fill="#005277" style="fill:#005277;fill:color(display-p3 0.0000 0.3216 0.4667);fill-opacity:1;"/>
<circle cx="1.66634" cy="616.667" r="1.66667" transform="rotate(180 1.66634 616.667)" fill="#005277" style="fill:#005277;fill:color(display-p3 0.0000 0.3216 0.4667);fill-opacity:1;"/>
<circle cx="45.3333" cy="602" r="1.66667" transform="rotate(180 45.3333 602)" fill="#005277" style="fill:#005277;fill:color(display-p3 0.0000 0.3216 0.4667);fill-opacity:1;"/>
<circle cx="1.66634" cy="602" r="1.66667" transform="rotate(180 1.66634 602)" fill="#005277" style="fill:#005277;fill:color(display-p3 0.0000 0.3216 0.4667);fill-opacity:1;"/>
<circle cx="45.3333" cy="587.333" r="1.66667" transform="rotate(180 45.3333 587.333)" fill="#005277" style="fill:#005277;fill:color(display-p3 0.0000 0.3216 0.4667);fill-opacity:1;"/>
<circle cx="1.66732" cy="587.333" r="1.66667" transform="rotate(180 1.66732 587.333)" fill="#005277" style="fill:#005277;fill:color(display-p3 0.0000 0.3216 0.4667);fill-opacity:1;"/>
<circle cx="45.3333" cy="559" r="1.66667" transform="rotate(180 45.3333 559)" fill="#005277" style="fill:#005277;fill:color(display-p3 0.0000 0.3216 0.4667);fill-opacity:1;"/>
<circle cx="1.66732" cy="559" r="1.66667" transform="rotate(180 1.66732 559)" fill="#005277" style="fill:#005277;fill:color(display-p3 0.0000 0.3216 0.4667);fill-opacity:1;"/>
<circle cx="45.3333" cy="530" r="1.66667" transform="rotate(180 45.3333 530)" fill="#005277" style="fill:#005277;fill:color(display-p3 0.0000 0.3216 0.4667);fill-opacity:1;"/>
<circle cx="1.66732" cy="530" r="1.66667" transform="rotate(180 1.66732 530)" fill="#005277" style="fill:#005277;fill:color(display-p3 0.0000 0.3216 0.4667);fill-opacity:1;"/>
<circle cx="45.3333" cy="573" r="1.66667" transform="rotate(180 45.3333 573)" fill="#005277" style="fill:#005277;fill:color(display-p3 0.0000 0.3216 0.4667);fill-opacity:1;"/>
<circle cx="1.66732" cy="573" r="1.66667" transform="rotate(180 1.66732 573)" fill="#005277" style="fill:#005277;fill:color(display-p3 0.0000 0.3216 0.4667);fill-opacity:1;"/>
<circle cx="45.3333" cy="544.667" r="1.66667" transform="rotate(180 45.3333 544.667)" fill="#005277" style="fill:#005277;fill:color(display-p3 0.0000 0.3216 0.4667);fill-opacity:1;"/>
<circle cx="1.66732" cy="544.667" r="1.66667" transform="rotate(180 1.66732 544.667)" fill="#005277" style="fill:#005277;fill:color(display-p3 0.0000 0.3216 0.4667);fill-opacity:1;"/>
<circle cx="45.3333" cy="515.667" r="1.66667" transform="rotate(180 45.3333 515.667)" fill="#005277" style="fill:#005277;fill:color(display-p3 0.0000 0.3216 0.4667);fill-opacity:1;"/>
<circle cx="1.66732" cy="515.667" r="1.66667" transform="rotate(180 1.66732 515.667)" fill="#005277" style="fill:#005277;fill:color(display-p3 0.0000 0.3216 0.4667);fill-opacity:1;"/>
<circle cx="587" cy="182" r="1.66667" transform="rotate(180 587 182)" fill="#005277" style="fill:#005277;fill:color(display-p3 0.0000 0.3216 0.4667);fill-opacity:1;"/>
<circle cx="587" cy="167.333" r="1.66667" transform="rotate(180 587 167.333)" fill="#005277" style="fill:#005277;fill:color(display-p3 0.0000 0.3216 0.4667);fill-opacity:1;"/>
<circle cx="587" cy="152.667" r="1.66667" transform="rotate(180 587 152.667)" fill="#005277" style="fill:#005277;fill:color(display-p3 0.0000 0.3216 0.4667);fill-opacity:1;"/>
<circle cx="587" cy="138" r="1.66667" transform="rotate(180 587 138)" fill="#005277" style="fill:#005277;fill:color(display-p3 0.0000 0.3216 0.4667);fill-opacity:1;"/>
<circle cx="587" cy="123.333" r="1.66667" transform="rotate(180 587 123.333)" fill="#005277" style="fill:#005277;fill:color(display-p3 0.0000 0.3216 0.4667);fill-opacity:1;"/>
<circle cx="587" cy="95.0003" r="1.66667" transform="rotate(180 587 95.0003)" fill="#005277" style="fill:#005277;fill:color(display-p3 0.0000 0.3216 0.4667);fill-opacity:1;"/>
<circle cx="587" cy="66.0003" r="1.66667" transform="rotate(180 587 66.0003)" fill="#005277" style="fill:#005277;fill:color(display-p3 0.0000 0.3216 0.4667);fill-opacity:1;"/>
<circle cx="587" cy="109" r="1.66667" transform="rotate(180 587 109)" fill="#005277" style="fill:#005277;fill:color(display-p3 0.0000 0.3216 0.4667);fill-opacity:1;"/>
<circle cx="587" cy="80.6673" r="1.66667" transform="rotate(180 587 80.6673)" fill="#005277" style="fill:#005277;fill:color(display-p3 0.0000 0.3216 0.4667);fill-opacity:1;"/>
<circle cx="587" cy="51.6673" r="1.66667" transform="rotate(180 587 51.6673)" fill="#005277" style="fill:#005277;fill:color(display-p3 0.0000 0.3216 0.4667);fill-opacity:1;"/>
<circle cx="572.333" cy="182" r="1.66667" transform="rotate(180 572.333 182)" fill="#005277" style="fill:#005277;fill:color(display-p3 0.0000 0.3216 0.4667);fill-opacity:1;"/>
<circle cx="572.333" cy="167.333" r="1.66667" transform="rotate(180 572.333 167.333)" fill="#005277" style="fill:#005277;fill:color(display-p3 0.0000 0.3216 0.4667);fill-opacity:1;"/>
<circle cx="572.333" cy="152.667" r="1.66667" transform="rotate(180 572.333 152.667)" fill="#005277" style="fill:#005277;fill:color(display-p3 0.0000 0.3216 0.4667);fill-opacity:1;"/>
<circle cx="572.333" cy="138" r="1.66667" transform="rotate(180 572.333 138)" fill="#005277" style="fill:#005277;fill:color(display-p3 0.0000 0.3216 0.4667);fill-opacity:1;"/>
<circle cx="572.333" cy="123.333" r="1.66667" transform="rotate(180 572.333 123.333)" fill="#005277" style="fill:#005277;fill:color(display-p3 0.0000 0.3216 0.4667);fill-opacity:1;"/>
<circle cx="572.333" cy="95.0003" r="1.66667" transform="rotate(180 572.333 95.0003)" fill="#005277" style="fill:#005277;fill:color(display-p3 0.0000 0.3216 0.4667);fill-opacity:1;"/>
<circle cx="572.333" cy="66.0003" r="1.66667" transform="rotate(180 572.333 66.0003)" fill="#005277" style="fill:#005277;fill:color(display-p3 0.0000 0.3216 0.4667);fill-opacity:1;"/>
<circle cx="572.333" cy="109" r="1.66667" transform="rotate(180 572.333 109)" fill="#005277" style="fill:#005277;fill:color(display-p3 0.0000 0.3216 0.4667);fill-opacity:1;"/>
<circle cx="572.333" cy="80.6673" r="1.66667" transform="rotate(180 572.333 80.6673)" fill="#005277" style="fill:#005277;fill:color(display-p3 0.0000 0.3216 0.4667);fill-opacity:1;"/>
<circle cx="572.333" cy="51.6673" r="1.66667" transform="rotate(180 572.333 51.6673)" fill="#005277" style="fill:#005277;fill:color(display-p3 0.0000 0.3216 0.4667);fill-opacity:1;"/>
<circle cx="557.667" cy="182" r="1.66667" transform="rotate(180 557.667 182)" fill="#005277" style="fill:#005277;fill:color(display-p3 0.0000 0.3216 0.4667);fill-opacity:1;"/>
<circle cx="514" cy="182" r="1.66667" transform="rotate(180 514 182)" fill="#005277" style="fill:#005277;fill:color(display-p3 0.0000 0.3216 0.4667);fill-opacity:1;"/>
<circle cx="557.667" cy="167.333" r="1.66667" transform="rotate(180 557.667 167.333)" fill="#005277" style="fill:#005277;fill:color(display-p3 0.0000 0.3216 0.4667);fill-opacity:1;"/>
<circle cx="514" cy="167.333" r="1.66667" transform="rotate(180 514 167.333)" fill="#005277" style="fill:#005277;fill:color(display-p3 0.0000 0.3216 0.4667);fill-opacity:1;"/>
<circle cx="557.667" cy="152.667" r="1.66667" transform="rotate(180 557.667 152.667)" fill="#005277" style="fill:#005277;fill:color(display-p3 0.0000 0.3216 0.4667);fill-opacity:1;"/>
<circle cx="514" cy="152.667" r="1.66667" transform="rotate(180 514 152.667)" fill="#005277" style="fill:#005277;fill:color(display-p3 0.0000 0.3216 0.4667);fill-opacity:1;"/>
<circle cx="557.667" cy="138" r="1.66667" transform="rotate(180 557.667 138)" fill="#005277" style="fill:#005277;fill:color(display-p3 0.0000 0.3216 0.4667);fill-opacity:1;"/>
<circle cx="514" cy="138" r="1.66667" transform="rotate(180 514 138)" fill="#005277" style="fill:#005277;fill:color(display-p3 0.0000 0.3216 0.4667);fill-opacity:1;"/>
<circle cx="557.666" cy="123.333" r="1.66667" transform="rotate(180 557.666 123.333)" fill="#005277" style="fill:#005277;fill:color(display-p3 0.0000 0.3216 0.4667);fill-opacity:1;"/>
<circle cx="514" cy="123.333" r="1.66667" transform="rotate(180 514 123.333)" fill="#005277" style="fill:#005277;fill:color(display-p3 0.0000 0.3216 0.4667);fill-opacity:1;"/>
<circle cx="557.666" cy="95.0003" r="1.66667" transform="rotate(180 557.666 95.0003)" fill="#005277" style="fill:#005277;fill:color(display-p3 0.0000 0.3216 0.4667);fill-opacity:1;"/>
<circle cx="514" cy="95.0003" r="1.66667" transform="rotate(180 514 95.0003)" fill="#005277" style="fill:#005277;fill:color(display-p3 0.0000 0.3216 0.4667);fill-opacity:1;"/>
<circle cx="557.666" cy="66.0003" r="1.66667" transform="rotate(180 557.666 66.0003)" fill="#005277" style="fill:#005277;fill:color(display-p3 0.0000 0.3216 0.4667);fill-opacity:1;"/>
<circle cx="514" cy="66.0003" r="1.66667" transform="rotate(180 514 66.0003)" fill="#005277" style="fill:#005277;fill:color(display-p3 0.0000 0.3216 0.4667);fill-opacity:1;"/>
<circle cx="557.666" cy="109" r="1.66667" transform="rotate(180 557.666 109)" fill="#005277" style="fill:#005277;fill:color(display-p3 0.0000 0.3216 0.4667);fill-opacity:1;"/>
<circle cx="514" cy="109" r="1.66667" transform="rotate(180 514 109)" fill="#005277" style="fill:#005277;fill:color(display-p3 0.0000 0.3216 0.4667);fill-opacity:1;"/>
<circle cx="557.666" cy="80.6673" r="1.66667" transform="rotate(180 557.666 80.6673)" fill="#005277" style="fill:#005277;fill:color(display-p3 0.0000 0.3216 0.4667);fill-opacity:1;"/>
<circle cx="514" cy="80.6673" r="1.66667" transform="rotate(180 514 80.6673)" fill="#005277" style="fill:#005277;fill:color(display-p3 0.0000 0.3216 0.4667);fill-opacity:1;"/>
<circle cx="557.666" cy="51.6673" r="1.66667" transform="rotate(180 557.666 51.6673)" fill="#005277" style="fill:#005277;fill:color(display-p3 0.0000 0.3216 0.4667);fill-opacity:1;"/>
<circle cx="514" cy="51.6673" r="1.66667" transform="rotate(180 514 51.6673)" fill="#005277" style="fill:#005277;fill:color(display-p3 0.0000 0.3216 0.4667);fill-opacity:1;"/>
<circle cx="543" cy="182" r="1.66667" transform="rotate(180 543 182)" fill="#005277" style="fill:#005277;fill:color(display-p3 0.0000 0.3216 0.4667);fill-opacity:1;"/>
<circle cx="499.333" cy="182" r="1.66667" transform="rotate(180 499.333 182)" fill="#005277" style="fill:#005277;fill:color(display-p3 0.0000 0.3216 0.4667);fill-opacity:1;"/>
<circle cx="543" cy="167.333" r="1.66667" transform="rotate(180 543 167.333)" fill="#005277" style="fill:#005277;fill:color(display-p3 0.0000 0.3216 0.4667);fill-opacity:1;"/>
<circle cx="499.333" cy="167.333" r="1.66667" transform="rotate(180 499.333 167.333)" fill="#005277" style="fill:#005277;fill:color(display-p3 0.0000 0.3216 0.4667);fill-opacity:1;"/>
<circle cx="543" cy="152.667" r="1.66667" transform="rotate(180 543 152.667)" fill="#005277" style="fill:#005277;fill:color(display-p3 0.0000 0.3216 0.4667);fill-opacity:1;"/>
<circle cx="499.333" cy="152.667" r="1.66667" transform="rotate(180 499.333 152.667)" fill="#005277" style="fill:#005277;fill:color(display-p3 0.0000 0.3216 0.4667);fill-opacity:1;"/>
<circle cx="543" cy="138" r="1.66667" transform="rotate(180 543 138)" fill="#005277" style="fill:#005277;fill:color(display-p3 0.0000 0.3216 0.4667);fill-opacity:1;"/>
<circle cx="499.333" cy="138" r="1.66667" transform="rotate(180 499.333 138)" fill="#005277" style="fill:#005277;fill:color(display-p3 0.0000 0.3216 0.4667);fill-opacity:1;"/>
<circle cx="543" cy="123.333" r="1.66667" transform="rotate(180 543 123.333)" fill="#005277" style="fill:#005277;fill:color(display-p3 0.0000 0.3216 0.4667);fill-opacity:1;"/>
<circle cx="499.333" cy="123.333" r="1.66667" transform="rotate(180 499.333 123.333)" fill="#005277" style="fill:#005277;fill:color(display-p3 0.0000 0.3216 0.4667);fill-opacity:1;"/>
<circle cx="543" cy="95.0003" r="1.66667" transform="rotate(180 543 95.0003)" fill="#005277" style="fill:#005277;fill:color(display-p3 0.0000 0.3216 0.4667);fill-opacity:1;"/>
<circle cx="499.333" cy="95.0003" r="1.66667" transform="rotate(180 499.333 95.0003)" fill="#005277" style="fill:#005277;fill:color(display-p3 0.0000 0.3216 0.4667);fill-opacity:1;"/>
<circle cx="543" cy="66.0003" r="1.66667" transform="rotate(180 543 66.0003)" fill="#005277" style="fill:#005277;fill:color(display-p3 0.0000 0.3216 0.4667);fill-opacity:1;"/>
<circle cx="499.333" cy="66.0003" r="1.66667" transform="rotate(180 499.333 66.0003)" fill="#005277" style="fill:#005277;fill:color(display-p3 0.0000 0.3216 0.4667);fill-opacity:1;"/>
<circle cx="543" cy="109" r="1.66667" transform="rotate(180 543 109)" fill="#005277" style="fill:#005277;fill:color(display-p3 0.0000 0.3216 0.4667);fill-opacity:1;"/>
<circle cx="499.333" cy="109" r="1.66667" transform="rotate(180 499.333 109)" fill="#005277" style="fill:#005277;fill:color(display-p3 0.0000 0.3216 0.4667);fill-opacity:1;"/>
<circle cx="543" cy="80.6673" r="1.66667" transform="rotate(180 543 80.6673)" fill="#005277" style="fill:#005277;fill:color(display-p3 0.0000 0.3216 0.4667);fill-opacity:1;"/>
<circle cx="499.333" cy="80.6673" r="1.66667" transform="rotate(180 499.333 80.6673)" fill="#005277" style="fill:#005277;fill:color(display-p3 0.0000 0.3216 0.4667);fill-opacity:1;"/>
<circle cx="543" cy="51.6673" r="1.66667" transform="rotate(180 543 51.6673)" fill="#005277" style="fill:#005277;fill:color(display-p3 0.0000 0.3216 0.4667);fill-opacity:1;"/>
<circle cx="499.333" cy="51.6673" r="1.66667" transform="rotate(180 499.333 51.6673)" fill="#005277" style="fill:#005277;fill:color(display-p3 0.0000 0.3216 0.4667);fill-opacity:1;"/>
<circle cx="528.333" cy="182" r="1.66667" transform="rotate(180 528.333 182)" fill="#005277" style="fill:#005277;fill:color(display-p3 0.0000 0.3216 0.4667);fill-opacity:1;"/>
<circle cx="484.667" cy="182" r="1.66667" transform="rotate(180 484.667 182)" fill="#005277" style="fill:#005277;fill:color(display-p3 0.0000 0.3216 0.4667);fill-opacity:1;"/>
<circle cx="528.333" cy="167.333" r="1.66667" transform="rotate(180 528.333 167.333)" fill="#005277" style="fill:#005277;fill:color(display-p3 0.0000 0.3216 0.4667);fill-opacity:1;"/>
<circle cx="484.666" cy="167.333" r="1.66667" transform="rotate(180 484.666 167.333)" fill="#005277" style="fill:#005277;fill:color(display-p3 0.0000 0.3216 0.4667);fill-opacity:1;"/>
<circle cx="528.333" cy="152.667" r="1.66667" transform="rotate(180 528.333 152.667)" fill="#005277" style="fill:#005277;fill:color(display-p3 0.0000 0.3216 0.4667);fill-opacity:1;"/>
<circle cx="484.666" cy="152.667" r="1.66667" transform="rotate(180 484.666 152.667)" fill="#005277" style="fill:#005277;fill:color(display-p3 0.0000 0.3216 0.4667);fill-opacity:1;"/>
<circle cx="528.333" cy="138" r="1.66667" transform="rotate(180 528.333 138)" fill="#005277" style="fill:#005277;fill:color(display-p3 0.0000 0.3216 0.4667);fill-opacity:1;"/>
<circle cx="484.666" cy="138" r="1.66667" transform="rotate(180 484.666 138)" fill="#005277" style="fill:#005277;fill:color(display-p3 0.0000 0.3216 0.4667);fill-opacity:1;"/>
<circle cx="528.333" cy="123.333" r="1.66667" transform="rotate(180 528.333 123.333)" fill="#005277" style="fill:#005277;fill:color(display-p3 0.0000 0.3216 0.4667);fill-opacity:1;"/>
<circle cx="484.667" cy="123.333" r="1.66667" transform="rotate(180 484.667 123.333)" fill="#005277" style="fill:#005277;fill:color(display-p3 0.0000 0.3216 0.4667);fill-opacity:1;"/>
<circle cx="528.333" cy="95.0003" r="1.66667" transform="rotate(180 528.333 95.0003)" fill="#005277" style="fill:#005277;fill:color(display-p3 0.0000 0.3216 0.4667);fill-opacity:1;"/>
<circle cx="484.667" cy="95.0003" r="1.66667" transform="rotate(180 484.667 95.0003)" fill="#005277" style="fill:#005277;fill:color(display-p3 0.0000 0.3216 0.4667);fill-opacity:1;"/>
<circle cx="528.333" cy="66.0003" r="1.66667" transform="rotate(180 528.333 66.0003)" fill="#005277" style="fill:#005277;fill:color(display-p3 0.0000 0.3216 0.4667);fill-opacity:1;"/>
<circle cx="484.667" cy="66.0003" r="1.66667" transform="rotate(180 484.667 66.0003)" fill="#005277" style="fill:#005277;fill:color(display-p3 0.0000 0.3216 0.4667);fill-opacity:1;"/>
<circle cx="528.333" cy="109" r="1.66667" transform="rotate(180 528.333 109)" fill="#005277" style="fill:#005277;fill:color(display-p3 0.0000 0.3216 0.4667);fill-opacity:1;"/>
<circle cx="484.667" cy="109" r="1.66667" transform="rotate(180 484.667 109)" fill="#005277" style="fill:#005277;fill:color(display-p3 0.0000 0.3216 0.4667);fill-opacity:1;"/>
<circle cx="528.333" cy="80.6673" r="1.66667" transform="rotate(180 528.333 80.6673)" fill="#005277" style="fill:#005277;fill:color(display-p3 0.0000 0.3216 0.4667);fill-opacity:1;"/>
<circle cx="484.667" cy="80.6673" r="1.66667" transform="rotate(180 484.667 80.6673)" fill="#005277" style="fill:#005277;fill:color(display-p3 0.0000 0.3216 0.4667);fill-opacity:1;"/>
<circle cx="528.333" cy="51.6673" r="1.66667" transform="rotate(180 528.333 51.6673)" fill="#005277" style="fill:#005277;fill:color(display-p3 0.0000 0.3216 0.4667);fill-opacity:1;"/>
<circle cx="484.667" cy="51.6673" r="1.66667" transform="rotate(180 484.667 51.6673)" fill="#005277" style="fill:#005277;fill:color(display-p3 0.0000 0.3216 0.4667);fill-opacity:1;"/>
<path fill-rule="evenodd" clip-rule="evenodd" d="M509.001 100C509.001 44.7715 509.001 0 509.001 0C564.229 0 609.001 44.7715 609.001 100C609.001 100 609.001 100 509.001 100Z" fill="#FBD7C7" style="fill:#FBD7C7;fill:color(display-p3 0.9843 0.8431 0.7804);fill-opacity:1;"/>
</svg>
