<svg width="174" height="52" viewBox="0 0 174 52" fill="none" xmlns="http://www.w3.org/2000/svg">
<g clip-path="url(#clip0_344_6760)">
<mask id="mask0_344_6760" style="mask-type:luminance" maskUnits="userSpaceOnUse" x="0" y="0" width="174" height="52">
<path d="M174 0H0V52H174V0Z" fill="white"/>
</mask>
<g mask="url(#mask0_344_6760)">
<path fill-rule="evenodd" clip-rule="evenodd" d="M26.0428 5.04532V24.0628L41.2218 12.0687C37.0696 7.5613 32.1373 5.26786 26.0428 5.04532ZM41.5994 39.2745C39.8999 37.4011 38.2116 35.5164 36.4851 33.6703C33.8032 30.8024 30.4311 29.7237 26.6791 31.0226C22.9967 32.2965 21.0252 35.2326 20.8746 39.1155C20.8543 41.4885 20.8521 43.8568 20.8521 46.2275C17.3473 45.3737 14.1304 43.6025 11.5114 41.0979C10.2232 39.7672 9.08123 38.2731 8.12355 36.6813C6.49371 33.9723 5.30898 30.8205 5.08867 27.6392C4.68852 21.8352 6.41728 16.3627 10.2884 12.0256C12.9906 8.99869 16.855 6.50768 20.8498 5.71292V21.926C20.8498 22.2598 20.8431 22.5936 20.8521 22.9297C20.9083 25.4502 21.2477 27.7278 23.7229 28.9403C26.0833 30.0939 28.1695 29.1742 30.0826 27.6437C34.4843 24.1241 38.8568 20.5636 43.2383 17.0189C43.5148 16.7964 43.7913 16.5716 44.0656 16.3468C46.3271 19.9278 46.7565 24.8348 46.1563 28.9517C45.6212 32.6303 44.1555 36.5314 41.5994 39.2745ZM26.126 46.8111C30.4963 46.7203 34.3652 45.3919 37.9104 42.8146C36.1142 40.8118 34.3517 38.7727 32.4566 36.8607C31.3056 35.6981 29.8286 35.3847 28.2797 35.8343C27.1332 36.1681 26.2474 37.0083 26.18 38.2572C26.0226 41.107 26.108 43.9613 26.126 46.8111ZM25.9327 -0.0820145C40.127 -0.0661193 51.4707 11.7009 51.4617 25.9748C51.4527 40.3849 39.9381 51.9611 25.6764 51.9225C11.1225 51.8839 -0.0391573 40.1692 -0.0234209 25.5569C-0.00768443 11.2195 11.8823 -0.0979097 25.9327 -0.0820145Z" fill="#F16321"/>
<path fill-rule="evenodd" clip-rule="evenodd" d="M166.098 12.1719C167.109 12.1333 168.114 12.1764 169.117 12.3013C170.119 12.4262 171.133 12.6714 172.165 13.0393C172.127 13.3663 172.107 13.607 172.107 13.7614C172.107 13.9158 172.107 14.152 172.107 14.4699C172.107 14.7878 172.098 15.2692 172.077 15.9141C172.059 16.5589 172.01 17.5376 171.933 18.8479C171.322 18.5981 170.616 18.3665 169.816 18.153C169.015 17.9418 168.28 17.7874 167.613 17.6898C167.231 17.6512 166.864 17.6603 166.511 17.7193C166.158 17.7761 165.848 17.9123 165.58 18.1235C165.371 18.3347 165.338 18.5572 165.479 18.7888C165.623 19.0204 165.799 19.2021 166.01 19.3383L169.272 20.4079C169.96 20.619 170.589 20.9188 171.16 21.3048C171.733 21.6908 172.228 22.1382 172.648 22.6491C173.069 23.16 173.397 23.7231 173.635 24.3408C173.874 24.9584 173.993 25.6124 173.993 26.3073C174.013 27.3291 173.856 28.2487 173.521 29.0685C173.186 29.8882 172.725 30.6012 172.134 31.2075C171.542 31.8138 170.832 32.3066 170.002 32.6812C169.173 33.0582 168.271 33.3034 167.298 33.4192C167.165 33.4397 166.965 33.4533 166.698 33.4624C166.43 33.4714 166.145 33.476 165.839 33.476C165.266 33.4942 164.713 33.4851 164.18 33.4465C163.645 33.4079 163.159 33.3397 162.721 33.2444C162.206 33.1286 161.676 32.9832 161.132 32.8107C160.588 32.6381 159.886 32.386 159.027 32.059L160.401 25.844C160.686 25.9394 160.974 26.0416 161.26 26.1483C161.545 26.255 161.833 26.3663 162.118 26.4798L163.463 26.9703C163.901 27.1429 164.335 27.3064 164.764 27.4608C165.194 27.6152 165.657 27.6924 166.151 27.6924C166.457 27.672 166.713 27.6016 166.925 27.4744C167.134 27.3495 167.258 27.1224 167.296 26.7955C167.296 26.5638 167.228 26.3572 167.096 26.1733C166.963 25.9916 166.794 25.8372 166.594 25.71C166.394 25.5852 166.178 25.4784 165.951 25.3921C165.722 25.3059 165.504 25.2332 165.293 25.1764C164.396 24.9652 163.575 24.6133 162.831 24.1205C162.087 23.63 161.444 23.0601 160.9 22.4152C160.356 21.7703 159.927 21.0709 159.612 20.3193C159.297 19.5677 159.14 18.8161 159.14 18.0644C159.14 17.4468 159.225 16.8496 159.398 16.2728C159.569 15.6938 159.841 15.1602 160.214 14.6674C160.585 14.1769 161.053 13.7432 161.617 13.3663C162.179 12.9916 162.854 12.7055 163.634 12.5148C164.495 12.2877 165.315 12.1719 166.098 12.1719Z" fill="#005277"/>
<path fill-rule="evenodd" clip-rule="evenodd" d="M151.218 20.0124C151.218 19.4447 151.025 18.9633 150.636 18.5704C150.247 18.1776 149.773 17.9823 149.208 17.9823H147.81V22.0719H149.208C149.773 22.0719 150.247 21.8698 150.636 21.4679C151.025 21.066 151.218 20.58 151.218 20.0124ZM159.287 33.4847H152.704C151.83 32.1903 151.108 31.1549 150.535 30.3806C149.962 29.6062 149.496 29.0227 149.137 28.6298C148.777 28.237 148.509 28.0031 148.336 27.9236C148.161 27.8441 148.039 27.8555 147.972 27.9531C147.905 28.0508 147.871 28.1984 147.871 28.3937C147.871 28.589 147.871 28.757 147.871 28.8932V33.4824H141.754V12.1533H149.764C150.697 12.1533 151.614 12.3781 152.515 12.83C153.419 13.2819 154.199 13.8496 154.86 14.5376C155.638 15.321 156.213 16.2134 156.593 17.2148C156.971 18.2139 157.151 19.2358 157.133 20.2735C157.113 21.3135 156.895 22.3376 156.479 23.3481C156.061 24.3586 155.465 25.2646 154.687 26.0684L159.287 33.4847Z" fill="#005277"/>
<path fill-rule="evenodd" clip-rule="evenodd" d="M140.867 27.3086V33.485H126.217V12.1582H140.867V18.3346H132.334V20.2466H139.469V25.4239H132.334V27.3086H140.867Z" fill="#005277"/>
<path fill-rule="evenodd" clip-rule="evenodd" d="M118.924 12.1582H125.688L119.982 33.485H112.454L106.748 12.1582H113.512L116.217 22.8216L118.924 12.1582Z" fill="#005277"/>
<path fill-rule="evenodd" clip-rule="evenodd" d="M102.685 22.7944C102.685 22.1699 102.568 21.5841 102.334 21.0368C102.1 20.4896 101.786 20.015 101.394 19.6199C101.001 19.2225 100.533 18.9069 99.9917 18.6707C99.4477 18.4345 98.8677 18.3165 98.2517 18.3165C97.6335 18.3165 97.0535 18.4345 96.5117 18.6707C95.9699 18.9069 95.4956 19.2225 95.0932 19.6199C94.6908 20.0172 94.3715 20.4896 94.1377 21.0368C93.904 21.5863 93.7871 22.1722 93.7871 22.7944C93.7871 23.4188 93.904 24.0047 94.1377 24.5519C94.3715 25.1014 94.6908 25.5783 95.0932 25.9848C95.4956 26.3912 95.9677 26.7137 96.5117 26.9498C97.0557 27.186 97.6357 27.3041 98.2517 27.3041C98.8699 27.3041 99.4499 27.186 99.9917 26.9498C100.533 26.7137 101.003 26.3912 101.394 25.9848C101.788 25.5783 102.1 25.1014 102.334 24.5519C102.568 24.0024 102.685 23.4165 102.685 22.7944ZM98.1663 12.1582C99.6253 12.1582 100.997 12.4375 102.28 12.9938C103.562 13.5524 104.681 14.3131 105.637 15.2759C106.592 16.241 107.345 17.3696 107.896 18.6662C108.449 19.9605 108.723 21.3456 108.723 22.8216C108.723 24.2976 108.447 25.6805 107.896 26.9771C107.343 28.2714 106.59 29.4022 105.637 30.365C104.681 31.3301 103.564 32.0908 102.28 32.6494C100.999 33.208 99.6275 33.485 98.1663 33.485C96.7073 33.485 95.336 33.2057 94.0523 32.6494C92.7709 32.0908 91.6514 31.3301 90.696 30.365C89.7405 29.4 88.9874 28.2714 88.4367 26.9771C87.8836 25.6827 87.6094 24.2976 87.6094 22.8216C87.6094 21.3456 87.8859 19.9627 88.4367 18.6662C88.9897 17.3718 89.7428 16.241 90.696 15.2759C91.6514 14.3109 92.7687 13.5502 94.0523 12.9938C95.3337 12.4375 96.705 12.1582 98.1663 12.1582Z" fill="#005277"/>
<path fill-rule="evenodd" clip-rule="evenodd" d="M86.7008 22.7944C86.7008 22.1699 86.5839 21.5841 86.3501 21.0368C86.1163 20.4896 85.8016 20.015 85.4104 19.6199C85.017 19.2225 84.5494 18.9069 84.0076 18.6707C83.4636 18.4345 82.8836 18.3165 82.2676 18.3165C81.6494 18.3165 81.0694 18.4345 80.5276 18.6707C79.9836 18.9069 79.5115 19.2225 79.1091 19.6199C78.7067 20.0172 78.3875 20.4896 78.1537 21.0368C77.9199 21.5863 77.803 22.1722 77.803 22.7944C77.803 23.4188 77.9199 24.0047 78.1537 24.5519C78.3875 25.1014 78.7067 25.5783 79.1091 25.9848C79.5115 26.3912 79.9836 26.7137 80.5276 26.9498C81.0694 27.186 81.6517 27.3041 82.2676 27.3041C82.8858 27.3041 83.4658 27.186 84.0076 26.9498C84.5517 26.7137 85.0193 26.3912 85.4104 25.9848C85.8038 25.5783 86.1163 25.1014 86.3501 24.5519C86.5839 24.0024 86.7008 23.4165 86.7008 22.7944ZM82.18 12.1582C83.6389 12.1582 85.0103 12.4375 86.2939 12.9938C87.5753 13.5524 88.6948 14.3131 89.648 15.2759C90.6034 16.241 91.3565 17.3696 91.9096 18.6662C92.4626 19.9605 92.7368 21.3456 92.7368 22.8216C92.7368 24.2976 92.4603 25.6805 91.9096 26.9771C91.3565 28.2714 90.6034 29.4022 89.648 30.365C88.6926 31.3301 87.5753 32.0908 86.2939 32.6494C85.0125 33.208 83.6412 33.485 82.18 33.485C80.721 33.485 79.3496 33.2057 78.066 32.6494C76.7846 32.0908 75.6651 31.3301 74.7096 30.365C73.7542 29.4 73.0011 28.2714 72.4503 26.9771C71.8973 25.6827 71.623 24.2976 71.623 22.8216C71.623 21.3456 71.8996 19.9627 72.4503 18.6662C73.0034 17.3718 73.7565 16.241 74.7096 15.2759C75.6651 14.3109 76.7823 13.5502 78.066 12.9938C79.3496 12.4375 80.721 12.1582 82.18 12.1582Z" fill="#005277"/>
<path fill-rule="evenodd" clip-rule="evenodd" d="M74.7669 12.1582L69.3199 22.8057L74.7669 33.485H67.8654L63.9897 25.8962V33.485H57.875V12.1582H63.9897V19.747L67.8654 12.1582H74.7669Z" fill="#005277"/>
<path d="M60.8579 45L59.7894 43.1655H59.0814V45H58.4956V40.5136H59.9439C60.2829 40.5136 60.5683 40.5715 60.8 40.6874C61.036 40.8032 61.2119 40.9599 61.3278 41.1573C61.4437 41.3547 61.5016 41.5799 61.5016 41.8331C61.5016 42.1421 61.4115 42.4146 61.2312 42.6506C61.0553 42.8866 60.7893 43.0432 60.4331 43.1205L61.5595 45H60.8579ZM59.0814 42.6956H59.9439C60.2614 42.6956 60.4996 42.6184 60.6584 42.4639C60.8171 42.3052 60.8965 42.0949 60.8965 41.8331C60.8965 41.5671 60.8171 41.3611 60.6584 41.2152C60.5039 41.0693 60.2657 40.9963 59.9439 40.9963H59.0814V42.6956ZM62.7143 40.8998C62.6027 40.8998 62.5083 40.8612 62.431 40.7839C62.3538 40.7067 62.3152 40.6123 62.3152 40.5007C62.3152 40.3892 62.3538 40.2947 62.431 40.2175C62.5083 40.1403 62.6027 40.1016 62.7143 40.1016C62.8215 40.1016 62.9116 40.1403 62.9846 40.2175C63.0618 40.2947 63.1005 40.3892 63.1005 40.5007C63.1005 40.6123 63.0618 40.7067 62.9846 40.7839C62.9116 40.8612 62.8215 40.8998 62.7143 40.8998ZM62.9975 41.4727V45H62.4117V41.4727H62.9975ZM65.4505 41.4147C65.7551 41.4147 66.0212 41.4813 66.2486 41.6143C66.4804 41.7473 66.652 41.9147 66.7636 42.1163V41.4727H67.3557V45.0772C67.3557 45.3991 67.2871 45.6844 67.1498 45.9333C67.0125 46.1865 66.8151 46.3839 66.5576 46.5255C66.3044 46.6671 66.0083 46.7379 65.6693 46.7379C65.2059 46.7379 64.8197 46.6285 64.5107 46.4096C64.2017 46.1908 64.0194 45.8926 63.9636 45.5149H64.5429C64.6073 45.7295 64.7403 45.9011 64.942 46.0299C65.1437 46.1629 65.3861 46.2294 65.6693 46.2294C65.9912 46.2294 66.2529 46.1286 66.4546 45.9269C66.6606 45.7252 66.7636 45.442 66.7636 45.0772V44.337C66.6477 44.543 66.4761 44.7146 66.2486 44.852C66.0212 44.9893 65.7551 45.0579 65.4505 45.0579C65.1372 45.0579 64.8519 44.9807 64.5944 44.8262C64.3412 44.6717 64.1417 44.455 63.9958 44.1761C63.8499 43.8972 63.7769 43.5796 63.7769 43.2235C63.7769 42.863 63.8499 42.5476 63.9958 42.2773C64.1417 42.0026 64.3412 41.7902 64.5944 41.64C64.8519 41.4898 65.1372 41.4147 65.4505 41.4147ZM66.7636 43.2299C66.7636 42.9638 66.7099 42.7321 66.6026 42.5347C66.4954 42.3373 66.3495 42.1871 66.165 42.0842C65.9847 41.9769 65.7852 41.9232 65.5663 41.9232C65.3475 41.9232 65.1479 41.9747 64.9677 42.0777C64.7875 42.1807 64.6437 42.3309 64.5365 42.5283C64.4292 42.7257 64.3755 42.9574 64.3755 43.2235C64.3755 43.4938 64.4292 43.7298 64.5365 43.9315C64.6437 44.1289 64.7875 44.2812 64.9677 44.3885C65.1479 44.4915 65.3475 44.543 65.5663 44.543C65.7852 44.543 65.9847 44.4915 66.165 44.3885C66.3495 44.2812 66.4954 44.1289 66.6026 43.9315C66.7099 43.7298 66.7636 43.4959 66.7636 43.2299ZM70.0964 41.4083C70.3624 41.4083 70.6027 41.4662 70.8173 41.5821C71.0319 41.6937 71.1992 41.8632 71.3194 42.0906C71.4438 42.318 71.506 42.5948 71.506 42.9209V45H70.9267V43.0046C70.9267 42.6527 70.8388 42.3845 70.6628 42.2C70.4869 42.0112 70.2466 41.9168 69.9419 41.9168C69.6329 41.9168 69.3862 42.0134 69.2017 42.2065C69.0215 42.3996 68.9313 42.6806 68.9313 43.0497V45H68.3456V40.2368H68.9313V41.9747C69.0472 41.7945 69.206 41.655 69.4077 41.5563C69.6136 41.4576 69.8432 41.4083 70.0964 41.4083ZM73.1773 41.9554V44.0345C73.1773 44.2061 73.2138 44.3284 73.2867 44.4014C73.3597 44.47 73.4863 44.5044 73.6665 44.5044H74.0978V45H73.57C73.2438 45 72.9992 44.9249 72.8362 44.7747C72.6731 44.6245 72.5916 44.3778 72.5916 44.0345V41.9554H72.1346V41.4727H72.5916V40.5844H73.1773V41.4727H74.0978V41.9554H73.1773ZM77.946 45.0451C77.65 45.0451 77.3839 44.9936 77.1479 44.8906C76.9162 44.7833 76.7338 44.6374 76.6008 44.4529C76.4677 44.2641 76.3991 44.0474 76.3948 43.8028H77.0192C77.0406 44.013 77.1264 44.1911 77.2766 44.337C77.4311 44.4786 77.6542 44.5494 77.946 44.5494C78.225 44.5494 78.4438 44.4808 78.6026 44.3435C78.7657 44.2018 78.8472 44.0216 78.8472 43.8028C78.8472 43.6311 78.8 43.4917 78.7056 43.3844C78.6112 43.2771 78.4932 43.1956 78.3516 43.1398C78.2099 43.084 78.019 43.0239 77.7787 42.9596C77.4826 42.8823 77.2444 42.8051 77.0642 42.7278C76.8883 42.6506 76.7359 42.5304 76.6072 42.3674C76.4828 42.2 76.4205 41.9769 76.4205 41.698C76.4205 41.4534 76.4828 41.2367 76.6072 41.0478C76.7316 40.859 76.9054 40.7131 77.1286 40.6101C77.356 40.5072 77.6156 40.4557 77.9074 40.4557C78.328 40.4557 78.6712 40.5608 78.9373 40.7711C79.2076 40.9813 79.36 41.2603 79.3943 41.6078H78.7506C78.7292 41.4362 78.6391 41.286 78.4803 41.1573C78.3215 41.0242 78.1113 40.9577 77.8495 40.9577C77.6049 40.9577 77.4054 41.0221 77.2509 41.1508C77.0964 41.2753 77.0192 41.4512 77.0192 41.6786C77.0192 41.8417 77.0642 41.9747 77.1543 42.0777C77.2487 42.1807 77.3624 42.2601 77.4955 42.3159C77.6328 42.3674 77.8237 42.4275 78.0683 42.4961C78.3644 42.5776 78.6026 42.6592 78.7828 42.7407C78.963 42.8179 79.1175 42.9402 79.2463 43.1076C79.375 43.2707 79.4394 43.4938 79.4394 43.777C79.4394 43.9959 79.3814 44.2018 79.2656 44.3949C79.1497 44.588 78.9781 44.7447 78.7506 44.8648C78.5232 44.985 78.255 45.0451 77.946 45.0451ZM80.8871 42.1228C81.0029 41.9211 81.1746 41.7537 81.402 41.6207C81.6337 41.4834 81.9019 41.4147 82.2066 41.4147C82.5199 41.4147 82.8031 41.4898 83.0563 41.64C83.3137 41.7902 83.5154 42.0026 83.6613 42.2773C83.8072 42.5476 83.8802 42.863 83.8802 43.2235C83.8802 43.5796 83.8072 43.8972 83.6613 44.1761C83.5154 44.455 83.3137 44.6717 83.0563 44.8262C82.8031 44.9807 82.5199 45.0579 82.2066 45.0579C81.9062 45.0579 81.6402 44.9914 81.4085 44.8584C81.181 44.7211 81.0072 44.5516 80.8871 44.3499V46.6736H80.3013V41.4727H80.8871V42.1228ZM83.2815 43.2235C83.2815 42.9574 83.2279 42.7257 83.1206 42.5283C83.0133 42.3309 82.8674 42.1807 82.6829 42.0777C82.5027 41.9747 82.3032 41.9232 82.0843 41.9232C81.8698 41.9232 81.6702 41.9769 81.4857 42.0842C81.3055 42.1871 81.1596 42.3395 81.048 42.5412C80.9407 42.7386 80.8871 42.9681 80.8871 43.2299C80.8871 43.4959 80.9407 43.7298 81.048 43.9315C81.1596 44.1289 81.3055 44.2812 81.4857 44.3885C81.6702 44.4915 81.8698 44.543 82.0843 44.543C82.3032 44.543 82.5027 44.4915 82.6829 44.3885C82.8674 44.2812 83.0133 44.1289 83.1206 43.9315C83.2279 43.7298 83.2815 43.4938 83.2815 43.2235ZM84.4323 43.2235C84.4323 42.863 84.5053 42.5476 84.6512 42.2773C84.7971 42.0026 84.9966 41.7902 85.2498 41.64C85.5072 41.4898 85.7926 41.4147 86.1059 41.4147C86.4148 41.4147 86.683 41.4813 86.9105 41.6143C87.1379 41.7473 87.3074 41.9147 87.419 42.1163V41.4727H88.0111V45H87.419V44.3435C87.3031 44.5494 87.1293 44.7211 86.8976 44.8584C86.6701 44.9914 86.4041 45.0579 86.0994 45.0579C85.7862 45.0579 85.503 44.9807 85.2498 44.8262C84.9966 44.6717 84.7971 44.455 84.6512 44.1761C84.5053 43.8972 84.4323 43.5796 84.4323 43.2235ZM87.419 43.2299C87.419 42.9638 87.3653 42.7321 87.258 42.5347C87.1508 42.3373 87.0049 42.1871 86.8203 42.0842C86.6401 41.9769 86.4406 41.9232 86.2217 41.9232C86.0029 41.9232 85.8033 41.9747 85.6231 42.0777C85.4429 42.1807 85.2991 42.3309 85.1918 42.5283C85.0846 42.7257 85.0309 42.9574 85.0309 43.2235C85.0309 43.4938 85.0846 43.7298 85.1918 43.9315C85.2991 44.1289 85.4429 44.2812 85.6231 44.3885C85.8033 44.4915 86.0029 44.543 86.2217 44.543C86.4406 44.543 86.6401 44.4915 86.8203 44.3885C87.0049 44.2812 87.1508 44.1289 87.258 43.9315C87.3653 43.7298 87.419 43.4959 87.419 43.2299ZM89.5867 42.0455C89.6897 41.8439 89.8356 41.6872 90.0244 41.5757C90.2175 41.4641 90.4514 41.4083 90.726 41.4083V42.0134H90.5716C89.915 42.0134 89.5867 42.3695 89.5867 43.0819V45H89.001V41.4727H89.5867V42.0455ZM94.6206 43.1012C94.6206 43.2127 94.6141 43.3307 94.6012 43.4552H91.782C91.8034 43.8028 91.9214 44.0753 92.136 44.2726C92.3548 44.4658 92.6187 44.5623 92.9277 44.5623C93.1809 44.5623 93.3911 44.5044 93.5585 44.3885C93.7301 44.2684 93.8503 44.1096 93.919 43.9122H94.5498C94.4554 44.2512 94.2665 44.528 93.9833 44.7425C93.7001 44.9528 93.3482 45.0579 92.9277 45.0579C92.593 45.0579 92.2926 44.9828 92.0266 44.8326C91.7648 44.6825 91.5588 44.47 91.4086 44.1954C91.2584 43.9165 91.1833 43.5946 91.1833 43.2299C91.1833 42.8651 91.2563 42.5455 91.4022 42.2708C91.5481 41.9962 91.7519 41.7859 92.0137 41.64C92.2797 41.4898 92.5844 41.4147 92.9277 41.4147C93.2624 41.4147 93.5585 41.4877 93.816 41.6336C94.0734 41.7795 94.2708 41.9812 94.4081 42.2386C94.5498 42.4918 94.6206 42.7793 94.6206 43.1012ZM94.0155 42.9789C94.0155 42.7557 93.9662 42.5648 93.8675 42.406C93.7688 42.2429 93.6336 42.1206 93.4619 42.0391C93.2946 41.9533 93.1079 41.9104 92.902 41.9104C92.6059 41.9104 92.3527 42.0048 92.1424 42.1936C91.9364 42.3824 91.8184 42.6442 91.7884 42.9789H94.0155ZM96.6425 45.0579C96.3721 45.0579 96.1297 45.0129 95.9151 44.9228C95.7005 44.8284 95.531 44.6996 95.4066 44.5366C95.2822 44.3692 95.2135 44.1782 95.2006 43.9637H95.8057C95.8228 44.1396 95.9044 44.2834 96.0503 44.3949C96.2005 44.5065 96.3957 44.5623 96.636 44.5623C96.8592 44.5623 97.0351 44.513 97.1638 44.4143C97.2926 44.3156 97.3569 44.1911 97.3569 44.0409C97.3569 43.8864 97.2883 43.7727 97.151 43.6998C97.0136 43.6225 96.8012 43.5474 96.5137 43.4745C96.252 43.4058 96.0374 43.3372 95.87 43.2685C95.707 43.1956 95.5654 43.0904 95.4452 42.9531C95.3294 42.8115 95.2714 42.627 95.2714 42.3996C95.2714 42.2193 95.3251 42.0541 95.4323 41.9039C95.5396 41.7537 95.692 41.6357 95.8894 41.5499C96.0867 41.4598 96.312 41.4147 96.5652 41.4147C96.9557 41.4147 97.2711 41.5134 97.5114 41.7108C97.7517 41.9082 97.8804 42.1786 97.8976 42.5219H97.3119C97.299 42.3373 97.2239 42.1893 97.0866 42.0777C96.9536 41.9662 96.7733 41.9104 96.5459 41.9104C96.3356 41.9104 96.1683 41.9554 96.0438 42.0455C95.9194 42.1357 95.8572 42.2537 95.8572 42.3996C95.8572 42.5154 95.8936 42.612 95.9666 42.6892C96.0438 42.7622 96.1382 42.8222 96.2498 42.8694C96.3657 42.9124 96.5244 42.9617 96.7261 43.0175C96.9793 43.0861 97.1853 43.1548 97.3441 43.2235C97.5028 43.2878 97.638 43.3865 97.7496 43.5196C97.8654 43.6526 97.9255 43.8264 97.9298 44.0409C97.9298 44.234 97.8762 44.4078 97.7689 44.5623C97.6616 44.7168 97.5093 44.8391 97.3119 44.9292C97.1188 45.015 96.8956 45.0579 96.6425 45.0579ZM98.9433 45.0386C98.8318 45.0386 98.7374 45 98.6601 44.9228C98.5829 44.8455 98.5443 44.7511 98.5443 44.6395C98.5443 44.528 98.5829 44.4336 98.6601 44.3563C98.7374 44.2791 98.8318 44.2405 98.9433 44.2405C99.0506 44.2405 99.1407 44.2791 99.2137 44.3563C99.2909 44.4336 99.3295 44.528 99.3295 44.6395C99.3295 44.7511 99.2909 44.8455 99.2137 44.9228C99.1407 45 99.0506 45.0386 98.9433 45.0386ZM104.186 45L103.118 43.1655H102.41V45H101.824V40.5136H103.272C103.611 40.5136 103.897 40.5715 104.129 40.6874C104.365 40.8032 104.54 40.9599 104.656 41.1573C104.772 41.3547 104.83 41.5799 104.83 41.8331C104.83 42.1421 104.74 42.4146 104.56 42.6506C104.384 42.8866 104.118 43.0432 103.762 43.1205L104.888 45H104.186ZM102.41 42.6956H103.272C103.59 42.6956 103.828 42.6184 103.987 42.4639C104.146 42.3052 104.225 42.0949 104.225 41.8331C104.225 41.5671 104.146 41.3611 103.987 41.2152C103.832 41.0693 103.594 40.9963 103.272 40.9963H102.41V42.6956ZM106.043 40.8998C105.931 40.8998 105.837 40.8612 105.76 40.7839C105.682 40.7067 105.644 40.6123 105.644 40.5007C105.644 40.3892 105.682 40.2947 105.76 40.2175C105.837 40.1403 105.931 40.1016 106.043 40.1016C106.15 40.1016 106.24 40.1403 106.313 40.2175C106.39 40.2947 106.429 40.3892 106.429 40.5007C106.429 40.6123 106.39 40.7067 106.313 40.7839C106.24 40.8612 106.15 40.8998 106.043 40.8998ZM106.326 41.4727V45H105.74V41.4727H106.326ZM108.779 41.4147C109.084 41.4147 109.35 41.4813 109.577 41.6143C109.809 41.7473 109.981 41.9147 110.092 42.1163V41.4727H110.684V45.0772C110.684 45.3991 110.616 45.6844 110.478 45.9333C110.341 46.1865 110.144 46.3839 109.886 46.5255C109.633 46.6671 109.337 46.7379 108.998 46.7379C108.534 46.7379 108.148 46.6285 107.839 46.4096C107.53 46.1908 107.348 45.8926 107.292 45.5149H107.871C107.936 45.7295 108.069 45.9011 108.271 46.0299C108.472 46.1629 108.715 46.2294 108.998 46.2294C109.32 46.2294 109.581 46.1286 109.783 45.9269C109.989 45.7252 110.092 45.442 110.092 45.0772V44.337C109.976 44.543 109.805 44.7146 109.577 44.852C109.35 44.9893 109.084 45.0579 108.779 45.0579C108.466 45.0579 108.18 44.9807 107.923 44.8262C107.67 44.6717 107.47 44.455 107.324 44.1761C107.178 43.8972 107.105 43.5796 107.105 43.2235C107.105 42.863 107.178 42.5476 107.324 42.2773C107.47 42.0026 107.67 41.7902 107.923 41.64C108.18 41.4898 108.466 41.4147 108.779 41.4147ZM110.092 43.2299C110.092 42.9638 110.038 42.7321 109.931 42.5347C109.824 42.3373 109.678 42.1871 109.493 42.0842C109.313 41.9769 109.114 41.9232 108.895 41.9232C108.676 41.9232 108.476 41.9747 108.296 42.0777C108.116 42.1807 107.972 42.3309 107.865 42.5283C107.758 42.7257 107.704 42.9574 107.704 43.2235C107.704 43.4938 107.758 43.7298 107.865 43.9315C107.972 44.1289 108.116 44.2812 108.296 44.3885C108.476 44.4915 108.676 44.543 108.895 44.543C109.114 44.543 109.313 44.4915 109.493 44.3885C109.678 44.2812 109.824 44.1289 109.931 43.9315C110.038 43.7298 110.092 43.4959 110.092 43.2299ZM113.425 41.4083C113.691 41.4083 113.931 41.4662 114.146 41.5821C114.36 41.6937 114.528 41.8632 114.648 42.0906C114.772 42.318 114.835 42.5948 114.835 42.9209V45H114.255V43.0046C114.255 42.6527 114.167 42.3845 113.991 42.2C113.815 42.0112 113.575 41.9168 113.27 41.9168C112.961 41.9168 112.715 42.0134 112.53 42.2065C112.35 42.3996 112.26 42.6806 112.26 43.0497V45H111.674V40.2368H112.26V41.9747C112.376 41.7945 112.535 41.655 112.736 41.5563C112.942 41.4576 113.172 41.4083 113.425 41.4083ZM116.506 41.9554V44.0345C116.506 44.2061 116.542 44.3284 116.615 44.4014C116.688 44.47 116.815 44.5044 116.995 44.5044H117.426V45H116.899C116.572 45 116.328 44.9249 116.165 44.7747C116.002 44.6245 115.92 44.3778 115.92 44.0345V41.9554H115.463V41.4727H115.92V40.5844H116.506V41.4727H117.426V41.9554H116.506ZM122.852 41.8267C122.852 42.2 122.723 42.5111 122.465 42.76C122.212 43.0046 121.824 43.1269 121.3 43.1269H120.438V45H119.852V40.5136H121.3C121.807 40.5136 122.191 40.6359 122.453 40.8805C122.719 41.1251 122.852 41.4405 122.852 41.8267ZM121.3 42.6442C121.626 42.6442 121.867 42.5733 122.021 42.4317C122.176 42.2901 122.253 42.0884 122.253 41.8267C122.253 41.2731 121.935 40.9963 121.3 40.9963H120.438V42.6442H121.3ZM124.165 42.0455C124.268 41.8439 124.414 41.6872 124.603 41.5757C124.796 41.4641 125.03 41.4083 125.305 41.4083V42.0134H125.15C124.494 42.0134 124.165 42.3695 124.165 43.0819V45H123.58V41.4727H124.165V42.0455ZM126.283 40.8998C126.172 40.8998 126.077 40.8612 126 40.7839C125.923 40.7067 125.884 40.6123 125.884 40.5007C125.884 40.3892 125.923 40.2947 126 40.2175C126.077 40.1403 126.172 40.1016 126.283 40.1016C126.391 40.1016 126.481 40.1403 126.554 40.2175C126.631 40.2947 126.67 40.3892 126.67 40.5007C126.67 40.6123 126.631 40.7067 126.554 40.7839C126.481 40.8612 126.391 40.8998 126.283 40.8998ZM126.567 41.4727V45H125.981V41.4727H126.567ZM127.346 43.2299C127.346 42.8651 127.419 42.5476 127.565 42.2773C127.711 42.0026 127.912 41.7902 128.17 41.64C128.432 41.4898 128.73 41.4147 129.065 41.4147C129.498 41.4147 129.854 41.5199 130.133 41.7301C130.416 41.9404 130.603 42.2322 130.693 42.6055H130.062C130.002 42.391 129.884 42.2215 129.708 42.097C129.537 41.9726 129.322 41.9104 129.065 41.9104C128.73 41.9104 128.46 42.0262 128.254 42.2579C128.048 42.4854 127.945 42.8094 127.945 43.2299C127.945 43.6547 128.048 43.983 128.254 44.2147C128.46 44.4464 128.73 44.5623 129.065 44.5623C129.322 44.5623 129.537 44.5022 129.708 44.3821C129.88 44.2619 129.998 44.0903 130.062 43.8671H130.693C130.599 44.2276 130.41 44.5172 130.127 44.7361C129.843 44.9507 129.489 45.0579 129.065 45.0579C128.73 45.0579 128.432 44.9828 128.17 44.8326C127.912 44.6825 127.711 44.47 127.565 44.1954C127.419 43.9208 127.346 43.5989 127.346 43.2299ZM134.693 43.1012C134.693 43.2127 134.687 43.3307 134.674 43.4552H131.854C131.876 43.8028 131.994 44.0753 132.208 44.2726C132.427 44.4658 132.691 44.5623 133 44.5623C133.253 44.5623 133.464 44.5044 133.631 44.3885C133.803 44.2684 133.923 44.1096 133.991 43.9122H134.622C134.528 44.2512 134.339 44.528 134.056 44.7425C133.773 44.9528 133.421 45.0579 133 45.0579C132.665 45.0579 132.365 44.9828 132.099 44.8326C131.837 44.6825 131.631 44.47 131.481 44.1954C131.331 43.9165 131.256 43.5946 131.256 43.2299C131.256 42.8651 131.329 42.5455 131.475 42.2708C131.621 41.9962 131.824 41.7859 132.086 41.64C132.352 41.4898 132.657 41.4147 133 41.4147C133.335 41.4147 133.631 41.4877 133.888 41.6336C134.146 41.7795 134.343 41.9812 134.481 42.2386C134.622 42.4918 134.693 42.7793 134.693 43.1012ZM134.088 42.9789C134.088 42.7557 134.039 42.5648 133.94 42.406C133.841 42.2429 133.706 42.1206 133.534 42.0391C133.367 41.9533 133.18 41.9104 132.974 41.9104C132.678 41.9104 132.425 42.0048 132.215 42.1936C132.009 42.3824 131.891 42.6442 131.861 42.9789H134.088ZM135.653 45.0386C135.541 45.0386 135.447 45 135.37 44.9228C135.292 44.8455 135.254 44.7511 135.254 44.6395C135.254 44.528 135.292 44.4336 135.37 44.3563C135.447 44.2791 135.541 44.2405 135.653 44.2405C135.76 44.2405 135.85 44.2791 135.923 44.3563C136 44.4336 136.039 44.528 136.039 44.6395C136.039 44.7511 136 44.8455 135.923 44.9228C135.85 45 135.76 45.0386 135.653 45.0386ZM140.896 45L139.827 43.1655H139.119V45H138.534V40.5136H139.982C140.321 40.5136 140.606 40.5715 140.838 40.6874C141.074 40.8032 141.25 40.9599 141.366 41.1573C141.482 41.3547 141.54 41.5799 141.54 41.8331C141.54 42.1421 141.45 42.4146 141.269 42.6506C141.093 42.8866 140.827 43.0432 140.471 43.1205L141.598 45H140.896ZM139.119 42.6956H139.982C140.3 42.6956 140.538 42.6184 140.696 42.4639C140.855 42.3052 140.935 42.0949 140.935 41.8331C140.935 41.5671 140.855 41.3611 140.696 41.2152C140.542 41.0693 140.304 40.9963 139.982 40.9963H139.119V42.6956ZM142.752 40.8998C142.641 40.8998 142.546 40.8612 142.469 40.7839C142.392 40.7067 142.353 40.6123 142.353 40.5007C142.353 40.3892 142.392 40.2947 142.469 40.2175C142.546 40.1403 142.641 40.1016 142.752 40.1016C142.86 40.1016 142.95 40.1403 143.023 40.2175C143.1 40.2947 143.139 40.3892 143.139 40.5007C143.139 40.6123 143.1 40.7067 143.023 40.7839C142.95 40.8612 142.86 40.8998 142.752 40.8998ZM143.036 41.4727V45H142.45V41.4727H143.036ZM145.489 41.4147C145.793 41.4147 146.059 41.4813 146.287 41.6143C146.518 41.7473 146.69 41.9147 146.802 42.1163V41.4727H147.394V45.0772C147.394 45.3991 147.325 45.6844 147.188 45.9333C147.051 46.1865 146.853 46.3839 146.596 46.5255C146.342 46.6671 146.046 46.7379 145.707 46.7379C145.244 46.7379 144.858 46.6285 144.549 46.4096C144.24 46.1908 144.057 45.8926 144.002 45.5149H144.581C144.645 45.7295 144.778 45.9011 144.98 46.0299C145.182 46.1629 145.424 46.2294 145.707 46.2294C146.029 46.2294 146.291 46.1286 146.493 45.9269C146.699 45.7252 146.802 45.442 146.802 45.0772V44.337C146.686 44.543 146.514 44.7146 146.287 44.852C146.059 44.9893 145.793 45.0579 145.489 45.0579C145.175 45.0579 144.89 44.9807 144.632 44.8262C144.379 44.6717 144.18 44.455 144.034 44.1761C143.888 43.8972 143.815 43.5796 143.815 43.2235C143.815 42.863 143.888 42.5476 144.034 42.2773C144.18 42.0026 144.379 41.7902 144.632 41.64C144.89 41.4898 145.175 41.4147 145.489 41.4147ZM146.802 43.2299C146.802 42.9638 146.748 42.7321 146.641 42.5347C146.533 42.3373 146.388 42.1871 146.203 42.0842C146.023 41.9769 145.823 41.9232 145.604 41.9232C145.386 41.9232 145.186 41.9747 145.006 42.0777C144.826 42.1807 144.682 42.3309 144.575 42.5283C144.467 42.7257 144.414 42.9574 144.414 43.2235C144.414 43.4938 144.467 43.7298 144.575 43.9315C144.682 44.1289 144.826 44.2812 145.006 44.3885C145.186 44.4915 145.386 44.543 145.604 44.543C145.823 44.543 146.023 44.4915 146.203 44.3885C146.388 44.2812 146.533 44.1289 146.641 43.9315C146.748 43.7298 146.802 43.4959 146.802 43.2299ZM150.134 41.4083C150.401 41.4083 150.641 41.4662 150.855 41.5821C151.07 41.6937 151.237 41.8632 151.357 42.0906C151.482 42.318 151.544 42.5948 151.544 42.9209V45H150.965V43.0046C150.965 42.6527 150.877 42.3845 150.701 42.2C150.525 42.0112 150.285 41.9168 149.98 41.9168C149.671 41.9168 149.424 42.0134 149.24 42.2065C149.06 42.3996 148.969 42.6806 148.969 43.0497V45H148.384V40.2368H148.969V41.9747C149.085 41.7945 149.244 41.655 149.446 41.5563C149.652 41.4576 149.881 41.4083 150.134 41.4083ZM153.215 41.9554V44.0345C153.215 44.2061 153.252 44.3284 153.325 44.4014C153.398 44.47 153.524 44.5044 153.705 44.5044H154.136V45H153.608C153.282 45 153.037 44.9249 152.874 44.7747C152.711 44.6245 152.63 44.3778 152.63 44.0345V41.9554H152.173V41.4727H152.63V40.5844H153.215V41.4727H154.136V41.9554H153.215ZM159.323 40.5136V40.9899H158.1V45H157.514V40.9899H156.285V40.5136H159.323ZM160.346 40.8998C160.235 40.8998 160.141 40.8612 160.063 40.7839C159.986 40.7067 159.947 40.6123 159.947 40.5007C159.947 40.3892 159.986 40.2947 160.063 40.2175C160.141 40.1403 160.235 40.1016 160.346 40.1016C160.454 40.1016 160.544 40.1403 160.617 40.2175C160.694 40.2947 160.733 40.3892 160.733 40.5007C160.733 40.6123 160.694 40.7067 160.617 40.7839C160.544 40.8612 160.454 40.8998 160.346 40.8998ZM160.63 41.4727V45H160.044V41.4727H160.63ZM165.87 41.4083C166.144 41.4083 166.389 41.4662 166.604 41.5821C166.818 41.6937 166.988 41.8632 167.112 42.0906C167.237 42.318 167.299 42.5948 167.299 42.9209V45H166.719V43.0046C166.719 42.6527 166.631 42.3845 166.456 42.2C166.284 42.0112 166.05 41.9168 165.754 41.9168C165.449 41.9168 165.207 42.0155 165.027 42.2129C164.846 42.406 164.756 42.6871 164.756 43.0561V45H164.177V43.0046C164.177 42.6527 164.089 42.3845 163.913 42.2C163.741 42.0112 163.508 41.9168 163.211 41.9168C162.907 41.9168 162.664 42.0155 162.484 42.2129C162.304 42.406 162.214 42.6871 162.214 43.0561V45H161.628V41.4727H162.214V41.9812C162.33 41.7967 162.484 41.655 162.677 41.5563C162.875 41.4576 163.091 41.4083 163.327 41.4083C163.623 41.4083 163.885 41.4748 164.113 41.6078C164.34 41.7409 164.51 41.9361 164.621 42.1936C164.72 41.9447 164.883 41.7516 165.11 41.6143C165.338 41.477 165.591 41.4083 165.87 41.4083ZM171.478 43.1012C171.478 43.2127 171.472 43.3307 171.459 43.4552H168.639C168.661 43.8028 168.779 44.0753 168.993 44.2726C169.212 44.4658 169.476 44.5623 169.785 44.5623C170.038 44.5623 170.249 44.5044 170.416 44.3885C170.588 44.2684 170.708 44.1096 170.776 43.9122H171.407C171.313 44.2512 171.124 44.528 170.841 44.7425C170.558 44.9528 170.206 45.0579 169.785 45.0579C169.45 45.0579 169.15 44.9828 168.884 44.8326C168.622 44.6825 168.416 44.47 168.266 44.1954C168.116 43.9165 168.041 43.5946 168.041 43.2299C168.041 42.8651 168.114 42.5455 168.26 42.2708C168.405 41.9962 168.609 41.7859 168.871 41.64C169.137 41.4898 169.442 41.4147 169.785 41.4147C170.12 41.4147 170.416 41.4877 170.673 41.6336C170.931 41.7795 171.128 41.9812 171.266 42.2386C171.407 42.4918 171.478 42.7793 171.478 43.1012ZM170.873 42.9789C170.873 42.7557 170.824 42.5648 170.725 42.406C170.626 42.2429 170.491 42.1206 170.319 42.0391C170.152 41.9533 169.965 41.9104 169.759 41.9104C169.463 41.9104 169.21 42.0048 169 42.1936C168.794 42.3824 168.676 42.6442 168.646 42.9789H170.873ZM172.438 45.0386C172.326 45.0386 172.232 45 172.155 44.9228C172.077 44.8455 172.039 44.7511 172.039 44.6395C172.039 44.528 172.077 44.4336 172.155 44.3563C172.232 44.2791 172.326 44.2405 172.438 44.2405C172.545 44.2405 172.635 44.2791 172.708 44.3563C172.785 44.4336 172.824 44.528 172.824 44.6395C172.824 44.7511 172.785 44.8455 172.708 44.9228C172.635 45 172.545 45.0386 172.438 45.0386Z" fill="#005277"/>
</g>
</g>
<defs>
<clipPath id="clip0_344_6760">
<rect width="174" height="52" fill="white"/>
</clipPath>
</defs>
</svg>
