<svg width="80" height="80" viewBox="0 0 80 80" fill="none" xmlns="http://www.w3.org/2000/svg">
<path d="M8.59645 38.3058L15.7946 31.3211C16.2649 30.8647 16.2763 30.1064 15.8199 29.6361L14.5205 28.2969L15.6719 29.4834L19.6904 25.5617C21.9824 27.5273 24.9613 28.7152 28.2177 28.7152C35.4568 28.7152 41.3254 22.8467 41.3254 15.6077C41.3254 8.36844 35.4569 2.5 28.2177 2.5C20.9785 2.5 15.11 8.36844 15.11 15.6077C15.11 18.398 15.9825 20.9842 17.4688 23.1097L13.3691 27.1103L13.221 26.9577C12.7646 26.4873 12.0061 26.4759 11.536 26.9323L4.33785 33.9172C3.86754 34.3736 3.85613 35.1317 4.31254 35.6022L6.91145 38.2805C7.36785 38.7509 8.12613 38.7622 8.59645 38.3058ZM28.2175 6.33922C33.3363 6.33922 37.486 10.4889 37.486 15.6077C37.486 20.7264 33.3363 24.8761 28.2175 24.8761C23.0988 24.8761 18.9491 20.7264 18.9491 15.6077C18.9491 10.4887 23.0988 6.33922 28.2175 6.33922ZM43.5449 18.5598C42.6561 23.2008 39.7121 27.112 35.6964 29.3089H50.2521C50.9424 29.3089 51.5021 29.8686 51.5021 30.5589C51.5021 31.2492 50.9424 31.8089 50.2521 31.8089H34.5735C33.8832 31.8089 33.3235 31.2492 33.3235 30.5589C33.3235 30.4889 33.3293 30.4205 33.3404 30.3536C31.7357 30.9111 30.0121 31.215 28.2177 31.215C27.0916 31.215 25.9939 31.0947 24.9355 30.8681V60.5756C24.9355 61.0517 25.3239 61.4402 25.8 61.4402H48.77C47.2333 59.6627 46.3038 57.3458 46.3038 54.8119C46.3038 49.2116 50.8436 44.6717 56.4439 44.6717C56.98 44.6717 57.5064 44.7136 58.02 44.7937V26.42H53.0919C51.4741 26.42 50.1599 25.1058 50.1599 23.4878V18.5598H43.5449ZM50.2521 41.1842H34.5735C33.8832 41.1842 33.3235 40.6245 33.3235 39.9342C33.3235 39.2439 33.8832 38.6842 34.5735 38.6842H50.2522C50.9425 38.6842 51.5022 39.2439 51.5022 39.9342C51.5022 40.6245 50.9424 41.1842 50.2521 41.1842ZM50.2521 36.4966H34.5735C33.8832 36.4966 33.3235 35.9369 33.3235 35.2466C33.3235 34.5563 33.8832 33.9966 34.5735 33.9966H50.2522C50.9425 33.9966 51.5022 34.5563 51.5022 35.2466C51.5021 35.9369 50.9424 36.4966 50.2521 36.4966ZM56.4438 47.1714C60.6635 47.1714 64.0841 50.5922 64.0841 54.8117C64.0841 59.0313 60.6633 62.452 56.4438 62.452C52.2243 62.452 48.8035 59.0314 48.8035 54.8117C48.8035 50.5922 52.2241 47.1714 56.4438 47.1714ZM71.4678 77.4998H41.4194C42.2307 69.9189 48.6474 64.0145 56.4436 64.0145C64.2399 64.0147 70.6566 69.9189 71.4678 77.4998ZM75.5179 53.4811L71.2672 56.6298C70.4893 57.2067 69.391 56.7103 69.2847 55.7705L68.6832 50.515C68.605 49.83 69.0968 49.2113 69.7818 49.1331C70.4668 49.055 71.0855 49.5469 71.1636 50.2317L71.253 51.0128C74.4789 42.3452 73.6768 32.7425 69.2049 24.6369C64.0694 15.3281 54.9238 9.34844 44.3693 8.39547C43.6843 8.33344 43.1794 7.72781 43.2413 7.04297C43.3033 6.35797 43.9089 5.85297 44.5938 5.915C55.9666 6.94187 65.8591 13.4062 71.3922 23.4358C76.1882 32.1289 77.0561 42.4764 73.6232 51.783L74.0333 51.4792C74.5861 51.0694 75.3666 51.1852 75.7764 51.738C76.1864 52.2906 76.0707 53.0712 75.5179 53.4811ZM53.0918 23.9202C52.8536 23.9202 52.6596 23.7259 52.6596 23.488V18.6348C52.7513 18.6767 52.8358 18.7362 52.9127 18.8131L57.7666 23.667C57.8435 23.7439 57.903 23.8284 57.9449 23.9202H53.0918ZM39.1732 72.9222C39.1004 73.6072 38.486 74.1034 37.8011 74.0306C23.4711 72.4852 11.5589 62.0478 8.20051 48.0448L8.01082 48.5655C7.77629 49.2127 7.06129 49.547 6.4141 49.3125C5.76691 49.078 5.43254 48.363 5.66707 47.7158L7.47832 42.7456C7.80879 41.8337 9.00004 41.6427 9.60723 42.3697L13.0058 46.4234C13.4482 46.952 13.3782 47.7389 12.8496 48.1812C12.321 48.6236 11.5339 48.5536 11.0918 48.025L10.6291 47.4731C13.7441 60.4481 24.7868 70.118 38.0647 71.55C38.7497 71.623 39.2461 72.2372 39.1732 72.9222Z" fill="#F26522"/>
</svg>
