<svg width="80" height="80" viewBox="0 0 80 80" fill="none" xmlns="http://www.w3.org/2000/svg">
<rect width="80" height="80" rx="40" fill="#F26522" fill-opacity="0.1"/>
<path d="M59.171 56.0052C58.0432 52.6486 53.5481 50.5474 50.3432 49.139C49.0877 48.5891 45.6117 47.6562 45.194 46.0753C45.0445 45.5058 45.0646 44.9687 45.1873 44.4541C44.9941 44.491 44.7981 44.5129 44.5953 44.5129H42.5071C40.84 44.5129 39.4853 43.1566 39.4853 41.4906C39.4853 39.8257 40.8405 38.4722 42.5071 38.4722H44.5953C45.2853 38.4722 45.9393 38.7057 46.4669 39.1223C47.2402 39.0193 47.9861 38.8541 48.6817 38.6374C49.595 36.7238 50.3073 34.4357 50.4669 32.4662C51.1485 24.0393 45.9825 19.109 38.5753 19.9614C33.1898 20.5813 29.9726 24.597 29.6249 29.767C29.2732 35.0366 31.227 38.9286 33.3024 41.7834C34.2113 43.0317 35.1661 43.8342 35.0193 45.3383C34.8491 47.1169 32.9473 47.6125 31.5871 48.159C29.9754 48.8064 28.2394 49.7886 27.4196 50.2428C24.5955 51.8024 21.4959 53.6806 20.7993 56.2499C19.2565 61.944 24.4667 63.6688 28.7681 64.4651C32.4596 65.1461 36.6221 65.1998 40.0459 65.1998C46.2389 65.1998 57.3751 64.9518 59.171 60.2965C59.6817 58.9754 59.4628 56.8704 59.171 56.0052Z" fill="#F16321"/>
<path d="M45.917 40.6399C45.6336 40.2081 45.1492 39.9214 44.5965 39.9214H42.5083C41.6369 39.9214 40.9341 40.6253 40.9341 41.4922C40.9341 42.3624 41.6369 43.0675 42.5083 43.0675H44.5965C45.2064 43.0675 45.7238 42.7197 45.9848 42.2168C48.8962 41.9878 51.4285 41.0985 53.206 39.7853C53.6142 40.0485 54.0969 40.2025 54.6177 40.2025H54.7488C56.2003 40.2025 57.374 39.0276 57.374 37.5744V32.3284C57.374 31.2834 56.7614 30.3818 55.8777 29.9629C55.4924 21.5388 48.5188 14.7998 40 14.7998C31.4813 14.7998 24.5065 21.5388 24.1229 29.9629C23.2376 30.3824 22.6255 31.2834 22.6255 32.3284V37.5744C22.6255 39.0276 23.8004 40.2025 25.2485 40.2025H25.3812C26.8305 40.2025 28.006 39.0276 28.006 37.5744V32.3284C28.006 31.2985 27.4107 30.4104 26.5455 29.9808C26.9201 22.8828 32.8102 17.2252 40 17.2252C47.1871 17.2252 53.08 22.8828 53.4529 29.9808C52.5888 30.4109 51.9941 31.2985 51.9941 32.3284V37.5744C51.9941 37.9228 52.0619 38.247 52.1812 38.55C50.6512 39.6448 48.4241 40.4248 45.917 40.6399Z" fill="#F16321"/>
</svg>
