<svg width="80" height="80" viewBox="0 0 80 80" fill="none" xmlns="http://www.w3.org/2000/svg">
<path fill-rule="evenodd" clip-rule="evenodd" d="M12.2184 30.4715V23.9543C12.2184 23.3702 12.6215 22.8799 13.1945 22.767L16.7114 22.0735L19.2442 15.9601L17.2473 12.9824C16.922 12.4974 16.9837 11.8655 17.3967 11.4527L22.0051 6.8443C22.4181 6.43148 23.0498 6.36992 23.5348 6.69492L26.5125 8.6918L32.6259 6.15898L33.3193 2.64211C33.4323 2.06914 33.9228 1.66602 34.5067 1.66602H41.024C41.6079 1.66602 42.0984 2.06914 42.2114 2.64211L42.9048 6.15898L49.0182 8.6918L51.9958 6.69492C52.4809 6.36977 53.1126 6.43133 53.5254 6.8443L57.7998 11.1187L48.7398 18.246C46.1409 15.0691 42.1901 13.041 37.7654 13.041C30.9875 13.041 25.322 17.7995 23.9247 24.1577L14.7603 31.9677L13.1947 31.659C12.6217 31.546 12.2187 31.0555 12.2187 30.4716L12.2184 30.4715ZM62.3359 22.767L61.6548 22.6327L51.5293 30.598C50.0115 36.7904 44.4254 41.3851 37.7651 41.3851C32.6137 41.3851 28.1048 38.6365 25.6236 34.526L19.0768 38.0624L19.244 38.4657L17.2472 41.4434C16.9218 41.9284 16.9836 42.5602 17.3965 42.973L22.005 47.5813C22.4179 47.9943 23.0497 48.056 23.5347 47.7307L26.5125 45.7338L32.6258 48.2665L33.3192 51.7837C33.4322 52.3566 33.9226 52.7598 34.5067 52.7598H41.0239C41.6078 52.7598 42.0983 52.3566 42.2112 51.7837L42.9047 48.2666L49.0179 45.7338L51.9956 47.7307C52.4808 48.0559 53.1125 47.9941 53.5254 47.5813L58.1339 42.973C58.5468 42.5602 58.6084 41.9282 58.2832 41.4434L56.2864 38.4657L58.8192 32.3523L62.3362 31.659C62.9092 31.546 63.3123 31.0555 63.3123 30.4716V23.9545C63.3123 23.3704 62.909 22.8801 62.3362 22.7671L62.3359 22.767ZM77.7823 2.67727C77.6406 2.49961 77.4317 2.41648 77.2067 2.44805L64.0393 4.30211C63.8125 4.33398 63.6336 4.47367 63.5475 4.68586C63.4614 4.8982 63.4923 5.12289 63.6326 5.30398L65.755 8.04102L41.1684 27.3826L34.8908 18.9705C34.7836 18.827 34.6378 18.7434 34.4597 18.7234C34.2815 18.7034 34.1208 18.7526 33.9843 18.8688L7.3856 41.5366L33.3865 27.4913L39.6795 35.924C39.7842 36.0641 39.925 36.1468 40.0984 36.1698C40.2718 36.1927 40.4293 36.1495 40.5668 36.0413L69.6972 13.1254L71.9886 16.0804C72.1307 16.2638 72.345 16.3498 72.5745 16.3155C72.804 16.2813 72.9839 16.1368 73.0665 15.9199L77.8778 3.28961C77.9587 3.07727 77.924 2.85492 77.7823 2.67727ZM57.5797 53.8912C55.0937 55.3263 49.9636 57.8615 45.2261 59.8726C44.8225 61.0529 44.1409 62.3434 42.9193 63.0712C41.5203 64.0687 39.3559 64.4545 37.0495 64.4591C33.4345 64.4665 29.3281 63.5502 27.5926 62.6471C27.0359 62.3577 26.8192 61.6716 27.1086 61.1149C27.3979 60.5582 28.084 60.3415 28.6408 60.6309C30.1384 61.4102 33.7793 62.2009 37.0495 62.1941C39.2461 62.1896 41.1983 61.8407 41.9647 60.8937C43.4923 59.3801 41.8431 56.9029 39.8629 56.9777C24.5373 56.9777 23.1748 45.6037 11.1114 58.977L9.51575 60.7688L19.6834 70.9365C23.8773 69.7954 29.7665 71.142 34.1086 71.046C39.0567 70.9366 42.0892 69.5935 46.4343 67.2918C51.3812 64.6713 59.9789 59.4521 61.4789 57.4805C63.6253 54.6585 60.8542 52.0007 57.58 53.891L57.5797 53.8912ZM7.69356 62.1626C6.93825 61.4073 5.70216 61.4071 4.94669 62.1626L2.07935 65.0299L15.3818 78.3326L18.2492 75.4651C19.0045 74.7098 19.0047 73.4735 18.2492 72.7182L7.69356 62.1626Z" fill="#F16321"/>
</svg>
