<svg width="80" height="80" viewBox="0 0 80 80" fill="none" xmlns="http://www.w3.org/2000/svg">
<g clip-path="url(#clip0_342_5194)">
<path d="M6.11621 26.6387H2.35059C1.05621 26.6387 0.00683594 27.688 0.00683594 28.9824C0.00683594 30.2768 1.05621 31.3262 2.35059 31.3262H6.11621C9.22074 31.2118 9.22184 26.7535 6.11621 26.6387Z" fill="#F26522"/>
<path d="M77.6641 26.6387H73.8984C72.6041 26.6387 71.5547 27.688 71.5547 28.9824C71.5547 30.2768 72.6041 31.3262 73.8984 31.3262H77.6641C80.7688 31.2118 80.7697 26.7535 77.6641 26.6387Z" fill="#F26522"/>
<path d="M14.385 6.67496C16.6609 8.78934 19.8146 5.63777 17.6995 3.36043L15.0371 0.698086C14.122 -0.21707 12.6379 -0.21707 11.7226 0.698086C10.8073 1.61324 10.8073 3.0973 11.7226 4.01262L14.385 6.67496Z" fill="#F26522"/>
<path d="M65.6298 51.2897C63.3537 49.1755 60.2003 52.327 62.3153 54.6042L64.9776 57.2666C65.8926 58.1816 67.3765 58.1822 68.2921 57.2666C69.2075 56.3514 69.2075 54.8673 68.2921 53.952L65.6298 51.2897Z" fill="#F26522"/>
<path d="M14.385 51.2898L11.7226 53.9522C10.8073 54.8673 10.8073 56.3514 11.7226 57.2667C12.6376 58.1817 14.1215 58.1823 15.0371 57.2667L17.6995 54.6043C19.814 52.3282 16.662 49.175 14.385 51.2898Z" fill="#F26522"/>
<path d="M64.9777 0.69795L62.3154 3.36029C61.4001 4.27545 61.4001 5.75951 62.3154 6.67483C63.2304 7.58983 64.7143 7.59045 65.6299 6.67483L68.2923 4.01248C70.4068 1.73639 67.2549 -1.41674 64.9777 0.69795Z" fill="#F26522"/>
<path d="M51.0199 31.3267L46.5997 35.7469C49.064 40.5134 45.3975 46.4615 40.0071 46.3894C35.9462 46.3894 32.6424 43.0858 32.6424 39.0248C32.5709 33.6348 38.5186 29.9676 43.2851 32.4323L48.3918 27.3255C48.8312 26.886 49.4274 26.6389 50.049 26.6389H66.0943C62.462 -4.9524 17.5406 -4.92928 13.9199 26.6389H28.9946L33.4148 22.2187C30.9505 17.4524 34.617 11.5041 40.0074 11.5762C44.0683 11.5762 47.3721 14.88 47.3721 18.9408C47.4436 24.3308 41.4959 27.998 36.7294 25.5331L31.6227 30.6399C31.1833 31.0795 30.5871 31.3265 29.9655 31.3265H13.9216C14.5124 37.874 17.5589 43.9817 22.4876 48.3588C25.1717 50.84 26.9128 54.1739 27.4466 57.7528C27.4523 57.752 52.5592 57.752 52.5679 57.7528C53.1014 54.1747 54.8427 50.8403 57.5271 48.3588C62.4558 43.9819 65.5024 37.874 66.093 31.3265H51.0199V31.3267Z" fill="#F26522"/>
<path d="M27.6221 65.1167C27.6221 71.1448 31.9517 76.178 37.664 77.2769C37.431 80.9084 42.5855 80.9062 42.3516 77.2769C48.0638 76.178 52.3934 71.1448 52.3934 65.1167V62.4395H27.6221V65.1167Z" fill="#F26522"/>
<path d="M42.6845 18.9409C42.6845 17.4648 41.4834 16.2637 40.0073 16.2637C36.4606 16.3984 36.4616 21.4838 40.0073 21.618C41.4834 21.6179 42.6845 20.417 42.6845 18.9409Z" fill="#F26522"/>
<path d="M37.3301 39.0247C37.3301 40.5008 38.5312 41.7019 40.0073 41.7019C43.554 41.5672 43.553 36.4817 40.0073 36.3477C38.5312 36.3477 37.3301 37.5486 37.3301 39.0247Z" fill="#F26522"/>
</g>
<defs>
<clipPath id="clip0_342_5194">
<rect width="80" height="80" fill="white"/>
</clipPath>
</defs>
</svg>
