<svg width="80" height="80" viewBox="0 0 80 80" fill="none" xmlns="http://www.w3.org/2000/svg">
<path fill-rule="evenodd" clip-rule="evenodd" d="M68.7464 76.3918H75.0347C75.7273 76.3918 76.2896 76.9542 76.2896 77.6467C76.2896 78.3393 75.7273 78.9016 75.0347 78.9016H4.96511C4.27256 78.9016 3.71021 78.3393 3.71021 77.6467C3.71021 76.9542 4.27256 76.3918 4.96511 76.3918H11.2534V52.0998C12.7535 53.0241 14.9751 53.6825 17.4889 53.6825C20.0026 53.6825 22.2242 53.0241 23.7243 52.0998V76.3918H33.7645V38.5722C35.2646 39.4966 37.4862 40.155 39.9999 40.155C42.5137 40.155 44.7353 39.4966 46.2354 38.5722V76.3918H56.2755V22.5258C57.7756 23.45 59.9973 24.1085 62.511 24.1085C65.0247 24.1085 67.2464 23.45 68.7464 22.5258V76.3918ZM63.4305 5.55748C48.0231 18.7134 31.1634 27.0238 15.2195 32.3954C14.5632 32.6166 13.8508 32.2632 13.6296 31.6069C13.4084 30.9506 13.7618 30.2381 14.4181 30.0171C30.026 24.7586 46.5308 16.6409 61.6245 3.79905L59.2129 3.92768C58.5213 3.96454 57.93 3.43293 57.8931 2.74132C57.8561 2.04971 58.3877 1.45818 59.0793 1.42132L65.1141 1.09944C65.4908 1.07936 65.8564 1.22964 66.1099 1.50885C66.3634 1.78791 66.4781 2.16626 66.422 2.53913L65.5515 8.33254C65.4486 9.0174 64.809 9.48987 64.124 9.38697C63.4391 9.28407 62.9667 8.64454 63.0696 7.95967L63.4305 5.55748ZM17.4889 44.9727C20.9303 44.9727 23.7243 46.3619 23.7243 48.0728C23.7243 49.7837 20.9303 51.1727 17.4889 51.1727C14.0475 51.1727 11.2534 49.7837 11.2534 48.0728C11.2534 46.3619 14.0475 44.9727 17.4889 44.9727ZM39.9999 31.4453C43.4413 31.4453 46.2354 32.8343 46.2354 34.5452C46.2354 36.2561 43.4413 37.6452 39.9999 37.6452C36.5585 37.6452 33.7645 36.2561 33.7645 34.5452C33.7645 32.8343 36.5585 31.4453 39.9999 31.4453ZM62.511 15.3987C65.9524 15.3987 68.7464 16.7878 68.7464 18.4987C68.7464 20.2097 65.9524 21.5987 62.511 21.5987C59.0696 21.5987 56.2755 20.2097 56.2755 18.4987C56.2755 16.7878 59.0696 15.3987 62.511 15.3987Z" fill="#F16321"/>
</svg>
