<svg width="80" height="80" viewBox="0 0 80 80" fill="none" xmlns="http://www.w3.org/2000/svg">
<path d="M40.0002 75.8333C34.0392 75.8444 28.2195 74.0182 23.3336 70.6033C22.7894 70.2241 22.4182 69.6442 22.3016 68.9913C22.1851 68.3383 22.3326 67.6658 22.7119 67.1217C23.0911 66.5775 23.671 66.2064 24.324 66.0898C24.9769 65.9732 25.6494 66.1208 26.1936 66.5C29.8173 69.0229 34.0631 70.5048 38.4698 70.7847C42.8764 71.0647 47.2756 70.1319 51.1895 68.0878C55.1034 66.0436 58.3824 62.9663 60.6705 59.1898C62.9587 55.4134 64.1684 51.0822 64.1684 46.6667C64.1684 42.2511 62.9587 37.92 60.6705 34.1435C58.3824 30.3671 55.1034 27.2897 51.1895 25.2456C47.2756 23.2015 42.8764 22.2687 38.4698 22.5486C34.0631 22.8285 29.8173 24.3104 26.1936 26.8333C25.9241 27.0211 25.6203 27.154 25.2996 27.2244C24.9788 27.2948 24.6473 27.3013 24.324 27.2436C24.0007 27.1859 23.6919 27.065 23.4153 26.888C23.1387 26.7109 22.8997 26.4811 22.7119 26.2117C22.5241 25.9422 22.3912 25.6385 22.3208 25.3177C22.2504 24.9969 22.2439 24.6654 22.3016 24.3421C22.4182 23.6891 22.7894 23.1093 23.3336 22.73C27.0906 20.1143 31.4106 18.4196 35.9441 17.7832C40.4776 17.1468 45.0972 17.5865 49.4293 19.0667C53.7613 20.5468 57.6841 23.026 60.8802 26.3035C64.0764 29.581 66.4562 33.5648 67.8271 37.9327C69.1979 42.3005 69.5214 46.9298 68.7713 51.4458C68.0211 55.9619 66.2185 60.238 63.5092 63.9281C60.7999 67.6182 57.26 70.6188 53.1759 72.687C49.0918 74.7553 44.5782 75.8331 40.0002 75.8333Z" fill="#F26522"/>
<path d="M23.3333 50.833H10C9.33696 50.833 8.70107 50.5696 8.23223 50.1008C7.76339 49.6319 7.5 48.996 7.5 48.333C7.5 47.67 7.76339 47.0341 8.23223 46.5652C8.70107 46.0964 9.33696 45.833 10 45.833H23.3333C23.9964 45.833 24.6323 46.0964 25.1011 46.5652C25.5699 47.0341 25.8333 47.67 25.8333 48.333C25.8333 48.996 25.5699 49.6319 25.1011 50.1008C24.6323 50.5696 23.9964 50.833 23.3333 50.833Z" fill="#F26522"/>
<path d="M25.6003 40.834H6.66699C6.00395 40.834 5.36807 40.5706 4.89923 40.1017C4.43038 39.6329 4.16699 38.997 4.16699 38.334C4.16699 37.6709 4.43038 37.0351 4.89923 36.5662C5.36807 36.0974 6.00395 35.834 6.66699 35.834H25.6003C26.2634 35.834 26.8993 36.0974 27.3681 36.5662C27.8369 37.0351 28.1003 37.6709 28.1003 38.334C28.1003 38.997 27.8369 39.6329 27.3681 40.1017C26.8993 40.5706 26.2634 40.834 25.6003 40.834Z" fill="#F26522"/>
<path d="M26.667 60.834H6.66699C6.00395 60.834 5.36807 60.5706 4.89923 60.1018C4.43038 59.6329 4.16699 58.997 4.16699 58.334C4.16699 57.6709 4.43038 57.0351 4.89923 56.5662C5.36807 56.0974 6.00395 55.834 6.66699 55.834H26.667C27.33 55.834 27.9659 56.0974 28.4348 56.5662C28.9036 57.0351 29.167 57.6709 29.167 58.334C29.167 58.997 28.9036 59.6329 28.4348 60.1018C27.9659 60.5706 27.33 60.834 26.667 60.834Z" fill="#F26522"/>
<path d="M72.0632 12.1371L60.8232 4.96043C59.5177 4.13081 57.9365 3.85265 56.4262 4.18694C54.916 4.52123 53.5999 5.44069 52.7665 6.74376L50.9732 9.55376C50.1425 10.8581 49.8634 12.4387 50.1971 13.9487C50.5309 15.4586 51.4502 16.7744 52.7532 17.6071L63.9998 24.7804C65.3046 25.6074 66.8836 25.8843 68.392 25.5508C69.9003 25.2173 71.2153 24.3004 72.0498 23.0004L73.8432 20.1904C74.672 18.8856 74.9501 17.3055 74.6165 15.7961C74.2829 14.2867 73.3648 12.971 72.0632 12.1371Z" fill="#F26522"/>
<path d="M56.1297 27.207C55.682 27.2061 55.2428 27.085 54.8579 26.8564C54.473 26.6277 54.1566 26.3 53.9417 25.9072C53.7268 25.5145 53.6213 25.0713 53.6361 24.6239C53.651 24.1765 53.7858 23.7413 54.0263 23.3637L57.6097 17.7437C57.7863 17.4668 58.0157 17.2275 58.2849 17.0393C58.554 16.8511 58.8576 16.7177 59.1783 16.6468C59.4989 16.576 59.8304 16.5689 60.1538 16.6262C60.4772 16.6834 60.7861 16.8037 61.063 16.9804C61.3399 17.157 61.5793 17.3864 61.7675 17.6556C61.9557 17.9247 62.089 18.2283 62.1599 18.549C62.2308 18.8696 62.2378 19.2011 62.1806 19.5245C62.1233 19.8479 62.003 20.1568 61.8263 20.4337L58.2397 26.0504C58.0144 26.4058 57.7027 26.6982 57.3337 26.9005C56.9647 27.1028 56.5505 27.2082 56.1297 27.207Z" fill="#F26522"/>
<path d="M39.9997 27.5004C36.2089 27.5004 32.5032 28.6245 29.3513 30.7306C26.1993 32.8366 23.7427 35.8301 22.292 39.3323C20.8413 42.8346 20.4617 46.6884 21.2013 50.4063C21.9408 54.1243 23.7663 57.5395 26.4468 60.22C29.1273 62.9005 32.5425 64.7259 36.2605 65.4655C39.9784 66.205 43.8322 65.8255 47.3344 64.3748C50.8367 62.9241 53.8301 60.4675 55.9362 57.3155C58.0422 54.1636 59.1664 50.4579 59.1664 46.6671C59.1832 44.1454 58.6989 41.6455 57.7417 39.3125C56.7844 36.9794 55.3732 34.8598 53.5901 33.0767C51.8069 31.2935 49.6873 29.8824 47.3543 28.9251C45.0213 27.9679 42.5214 27.4836 39.9997 27.5004ZM48.3064 42.7671L44.903 45.7204C44.9657 46.0321 44.9981 46.3492 44.9997 46.6671C45.0167 47.7487 44.6879 48.8075 44.0613 49.6893C43.4348 50.5711 42.5431 51.2298 41.5161 51.5696C40.4891 51.9094 39.3805 51.9125 38.3516 51.5785C37.3227 51.2445 36.4273 50.5907 35.7958 49.7124C35.1643 48.8342 34.8297 47.7772 34.8406 46.6956C34.8515 45.6139 35.2074 44.5639 35.8565 43.6986C36.5056 42.8332 37.4139 42.1976 38.4493 41.8844C39.4847 41.5712 40.5931 41.5966 41.613 41.9571L45.0264 38.9904C45.5272 38.5555 46.1803 38.3373 46.8419 38.3838C47.5036 38.4304 48.1197 38.7379 48.5547 39.2388C48.9896 39.7396 49.2078 40.3927 49.1613 41.0544C49.1147 41.716 48.8072 42.3321 48.3064 42.7671Z" fill="#F26522"/>
</svg>
