<svg width="80" height="80" viewBox="0 0 80 80" fill="none" xmlns="http://www.w3.org/2000/svg">
<rect width="80" height="80" rx="40" fill="#F26522" fill-opacity="0.1"/>
<path d="M62.75 38.25C61.7827 38.25 61 39.0336 61 40C61 51.5792 51.5801 61 40 61C35.8686 61 31.8372 59.7612 28.4182 57.5H29.5C30.4673 57.5 31.25 56.7164 31.25 55.75C31.25 54.7836 30.4673 54 29.5 54H24.25C23.2827 54 22.5 54.7836 22.5 55.75V61C22.5 61.9664 23.2827 62.75 24.25 62.75C25.2173 62.75 26 61.9664 26 61V60.1046C30.089 62.9498 34.9865 64.5 40 64.5C53.5095 64.5 64.5 53.5095 64.5 40C64.5 39.0336 63.7173 38.25 62.75 38.25Z" fill="#F16321"/>
<path d="M40 19C44.1885 19 48.1668 20.2081 51.6055 22.5H50.5C49.5327 22.5 48.75 23.2836 48.75 24.25C48.75 25.2164 49.5327 26 50.5 26H55.75C56.7173 26 57.5 25.2164 57.5 24.25V19C57.5 18.0336 56.7173 17.25 55.75 17.25C54.7827 17.25 54 18.0336 54 19V19.9146C49.8834 17.0336 45.0763 15.5 40 15.5C26.4905 15.5 15.5 26.4905 15.5 40C15.5 40.9664 16.2827 41.75 17.25 41.75C18.2173 41.75 19 40.9664 19 40C19 28.4208 28.4199 19 40 19Z" fill="#F16321"/>
<path d="M54 46.9999V32.9999C54 32.9952 53.998 32.991 53.998 32.9863L40.875 38.8188V53.9999L52.9387 48.608C53.583 48.3329 54 47.6997 54 46.9999Z" fill="#F16321"/>
<path d="M53.0802 31.4792C53.0312 31.4524 40.6888 26.1423 40.6888 26.1423C40.2513 25.9526 39.7488 25.9526 39.3113 26.1423C39.3113 26.1423 26.9689 31.4524 26.9199 31.4792L40.0001 37.2925L53.0802 31.4792Z" fill="#F16321"/>
<path d="M26 32.9999V46.9999C26 47.6997 26.417 48.3329 27.0613 48.608L39.125 53.9999V38.8188L26.002 32.9863C26.002 32.991 26 32.9952 26 32.9999Z" fill="#F16321"/>
</svg>
