<svg width="80" height="80" viewBox="0 0 80 80" fill="none" xmlns="http://www.w3.org/2000/svg">
<path d="M28.6295 51.4302L31.3689 49.7575C32.3264 50.3393 33.3931 50.7757 34.5204 51.0666L35.2719 54.1938H39.5386L40.2901 51.0666C41.4174 50.7757 42.4719 50.3393 43.4295 49.7575L46.181 51.4302L49.1992 48.412L47.5264 45.6726C48.0961 44.7029 48.5446 43.6484 48.8234 42.5211L51.9507 41.7696V37.5029L48.8234 36.7514C48.5446 35.6242 48.0961 34.5696 47.5264 33.5999L49.1992 30.8605L46.181 27.8423L43.4295 29.5151C42.4719 28.9454 41.4174 28.4969 40.2901 28.206L39.5386 25.0908H35.2719L34.5204 28.206C33.3931 28.4969 32.3264 28.9332 31.3689 29.5151L28.6295 27.8423L25.5992 30.8605L27.284 33.5999C26.7022 34.5696 26.2658 35.6242 25.9749 36.7514L22.8477 37.5029V41.7696L25.9749 42.5211C26.2658 43.6484 26.7022 44.7029 27.284 45.6726L25.5992 48.412L28.6295 51.4302ZM37.4174 34.2666C40.3871 34.2666 42.7871 36.6666 42.7871 39.6363C42.7871 42.6181 40.3871 45.0181 37.4174 45.0181C34.4355 45.0181 32.0355 42.606 32.0355 39.6363C32.0234 36.6787 34.4355 34.2666 37.4174 34.2666Z" fill="#F26522"/>
<path d="M65.2599 26.594C70.7387 26.594 75.175 22.1576 75.175 16.6788C75.175 11.2 70.7387 6.76367 65.2599 6.76367C59.7811 6.76367 55.3447 11.2 55.3447 16.6788C55.3447 22.1576 59.7811 26.594 65.2599 26.594ZM60.8114 16.5819C61.2841 16.1091 62.0478 16.1091 62.5205 16.5819L63.5387 17.6122L67.975 13.1758C68.4478 12.7031 69.2114 12.7031 69.6841 13.1758C70.1569 13.6485 70.1569 14.4122 69.6841 14.8849L64.3871 20.1819C64.1568 20.4122 63.8538 20.5334 63.5265 20.5334C63.1993 20.5334 62.8962 20.4 62.6659 20.1819L60.7872 18.3031C60.3387 17.8303 60.3387 17.0546 60.8114 16.5819Z" fill="#F26522"/>
<path d="M12.8359 61.0791C12.3875 60.57 11.9753 60.0245 11.5632 59.4912H2.42383V69.8548H25.1269C20.4602 67.9518 16.2299 64.97 12.8359 61.0791Z" fill="#F26522"/>
<path d="M77.5754 64.6545L67.6117 56.1091V59.4787H37.4057C33.5269 59.4787 29.9269 58.3515 26.8723 56.4121C21.2966 52.8969 17.5633 46.703 17.5633 39.6484C17.5633 32.5697 21.2966 26.3757 26.8845 22.8606C29.9269 20.9333 33.539 19.806 37.4057 19.806C48.3511 19.806 57.2481 28.6909 57.2481 39.6484C57.2481 47.1272 53.0663 53.6606 46.9208 57.0424H62.0723C65.5633 52.1212 67.6117 46.109 67.6117 39.6484C67.6117 35.8909 66.9208 32.303 65.6602 28.9818C65.5269 28.9818 65.3936 29.006 65.2481 29.006C58.4481 29.006 52.9087 23.4787 52.9087 16.6666C52.9087 15.7212 53.0299 14.8121 53.2239 13.9272C48.6178 11.0787 43.1996 9.44238 37.3936 9.44238C20.739 9.44238 7.1875 22.9818 7.1875 39.6484C7.1875 47.2242 10.0117 54.1697 14.642 59.4787C20.1936 65.8181 28.3269 69.8424 37.3936 69.8424H67.5996V73.2242L77.5754 64.6545Z" fill="#F26522"/>
</svg>
