<svg width="80" height="80" viewBox="0 0 80 80" fill="none" xmlns="http://www.w3.org/2000/svg">
<g clip-path="url(#clip0_342_460)">
<path d="M48.3833 13.9291C45.7468 13.0834 42.9372 12.625 40.02 12.625C24.9125 12.625 12.6653 24.872 12.6653 39.9797C12.6653 42.8969 13.1237 45.7066 13.9693 48.343L48.3833 13.9291Z" fill="#F16321"/>
<path d="M31.6565 66.0291C34.2929 66.8748 37.1026 67.3332 40.0198 67.3332C55.1273 67.3332 67.3745 55.0862 67.3745 39.9785C67.3745 37.0613 66.916 34.2516 66.0704 31.6152L31.6565 66.0291Z" fill="#F16321"/>
<path d="M5.77715 56.4721C5.6384 55.4239 5.72262 54.327 6.06668 53.2462C6.94793 50.4787 6.13684 47.4514 3.9898 45.4953C0.753399 42.5465 0.753399 37.4536 3.9898 34.5048C6.13684 32.5487 6.94793 29.5214 6.06668 26.7539C4.73824 22.582 7.28465 18.1714 11.5618 17.2359C14.3992 16.6154 16.6153 14.3992 17.2359 11.5618C18.1714 7.28465 22.582 4.73809 26.7539 6.06668C29.5214 6.94793 32.5487 6.13684 34.5048 3.9898C37.4536 0.753399 42.5465 0.753399 45.4953 3.9898C47.4514 6.13684 50.4787 6.94793 53.2462 6.06668C54.3318 5.7209 55.4337 5.63762 56.4862 5.77902M74.2281 23.5667C74.3596 24.6032 74.2736 25.6865 73.9336 26.754C73.0523 29.5215 73.8634 32.5489 76.0104 34.505C79.2468 37.4537 79.2468 42.5467 76.0104 45.4954C73.8634 47.4515 73.0523 50.4789 73.9336 53.2464C75.262 57.4182 72.7154 61.8289 68.4384 62.7643C65.6011 63.3848 63.385 65.6011 62.7643 68.4384C61.8289 72.7156 57.4182 75.2622 53.2464 73.9336C50.4789 73.0523 47.4515 73.8634 45.4954 76.0104C42.5467 79.2468 37.4537 79.2468 34.505 76.0104C32.5489 73.8634 29.5215 73.0523 26.754 73.9336C25.6742 74.2775 24.5782 74.3617 23.5309 74.2234" stroke="#F16321" stroke-width="3.125" stroke-miterlimit="10" stroke-linecap="round" stroke-linejoin="round"/>
<path d="M1.5625 60.7502L60.7502 1.5625" stroke="#F16321" stroke-width="3.125" stroke-miterlimit="10" stroke-linecap="round" stroke-linejoin="round"/>
<path d="M78.4374 19.25L19.2498 78.4377" stroke="#F16321" stroke-width="3.125" stroke-miterlimit="10" stroke-linecap="round" stroke-linejoin="round"/>
<path d="M26.9039 61.9349L20.7119 50.6983C20.5977 50.481 20.7758 50.3024 20.9933 50.4163L32.2074 56.6316" stroke="#F16321" stroke-width="3.125" stroke-miterlimit="10" stroke-linecap="round" stroke-linejoin="round"/>
<path d="M26.469 59.9263L30.2118 56.1836" stroke="#F16321" stroke-width="3.125" stroke-miterlimit="10" stroke-linecap="round" stroke-linejoin="round"/>
<path d="M42.6228 46.2155L36.641 34.7688C36.531 34.5471 36.7239 34.3537 36.9458 34.4632L48.3682 40.4702" stroke="#F16321" stroke-width="3.125" stroke-miterlimit="10" stroke-linecap="round" stroke-linejoin="round"/>
<path d="M42.2534 44.1426L46.3081 40.0879" stroke="#F16321" stroke-width="3.125" stroke-miterlimit="10" stroke-linecap="round" stroke-linejoin="round"/>
<path d="M51.6671 37.1726L42.8447 28.3502L55.9508 32.5187C56.1935 32.5955 56.2039 32.4285 56.0096 32.2343L47.4686 23.6934" stroke="#F16321" stroke-width="3.125" stroke-miterlimit="10" stroke-linecap="round" stroke-linejoin="round"/>
<path d="M61.0005 10.2422L57.4763 13.7666L66.2344 22.5247L69.7588 19.0005" stroke="#F16321" stroke-width="3.125" stroke-miterlimit="10" stroke-linecap="round" stroke-linejoin="round"/>
<path d="M65.1196 14.8809L61.8552 18.1452" stroke="#F16321" stroke-width="3.125" stroke-miterlimit="10" stroke-linecap="round" stroke-linejoin="round"/>
<path d="M11.5815 61.1871L17.6331 67.2387C18.3784 67.984 19.25 68.116 20.2792 67.8893C20.7804 67.7788 21.3061 67.5318 21.7869 67.0523C22.2033 66.637 22.4545 66.1932 22.5972 65.7612C22.9604 64.6605 22.8675 63.6341 22.0479 62.8146L16.0009 56.7676" stroke="#F16321" stroke-width="3.125" stroke-miterlimit="10" stroke-linecap="round" stroke-linejoin="round"/>
<path d="M50.8088 20.3534L54.4435 16.7188" stroke="#F16321" stroke-width="3.125" stroke-miterlimit="10" stroke-linecap="round" stroke-linejoin="round"/>
<path d="M52.9011 18.8262L61.4577 27.3827" stroke="#F16321" stroke-width="3.125" stroke-miterlimit="10" stroke-linecap="round" stroke-linejoin="round"/>
<path d="M32.0881 48.3145L39.4672 49.3726" stroke="#F16321" stroke-width="3.125" stroke-miterlimit="10" stroke-linecap="round" stroke-linejoin="round"/>
<path d="M31.3601 49.0098L35.5946 53.2443" stroke="#F16321" stroke-width="3.125" stroke-miterlimit="10" stroke-linecap="round" stroke-linejoin="round"/>
<path d="M33.478 42.2786C34.7466 43.5471 34.6627 45.6881 33.348 47.0028C32.696 47.6548 31.3602 49.0109 31.3602 49.0109C31.3602 49.0109 29.6924 47.3431 29.053 46.7037C28.5279 46.1786 26.7559 44.4065 26.7559 44.4065C26.7559 44.4065 27.9834 43.179 28.7538 42.4086C30.0685 41.0937 32.2093 41.0098 33.478 42.2786Z" stroke="#F16321" stroke-width="3.125" stroke-miterlimit="10" stroke-linecap="round" stroke-linejoin="round"/>
<path d="M7.6335 65.3681C6.54334 65.3272 5.43975 65.7228 4.6074 66.5551C3.02084 68.1417 3.02084 70.7139 4.6074 72.3005L7.701 75.3941C9.28756 76.9806 11.8597 76.9806 13.4463 75.3941C15.0329 73.8075 15.0329 71.2353 13.4463 69.6487L12.6715 68.8739L11.0301 70.5155" stroke="#F16321" stroke-width="3.125" stroke-miterlimit="10" stroke-linecap="round" stroke-linejoin="round"/>
<path d="M67.8244 3.41797L64.3 6.94234L73.0582 15.7005L76.5825 12.1761" stroke="#F16321" stroke-width="3.125" stroke-miterlimit="10" stroke-linecap="round" stroke-linejoin="round"/>
<path d="M71.9435 8.05664L68.679 11.3212" stroke="#F16321" stroke-width="3.125" stroke-miterlimit="10" stroke-linecap="round" stroke-linejoin="round"/>
</g>
<defs>
<clipPath id="clip0_342_460">
<rect width="80" height="80" fill="white"/>
</clipPath>
</defs>
</svg>
