<svg width="25" height="26" viewBox="0 0 25 26" fill="none" xmlns="http://www.w3.org/2000/svg">
<g clip-path="url(#clip0_342_347)">
<path d="M19.0094 14.2676C18.1906 15.927 17.0813 17.5801 15.9469 19.0645C14.8708 20.4639 13.7202 21.8043 12.5 23.0801C11.2798 21.8044 10.1292 20.4639 9.05313 19.0645C7.91875 17.5801 6.80938 15.927 5.99063 14.2676C5.1625 12.591 4.6875 11.0207 4.6875 9.67383C4.6875 7.60182 5.5106 5.61468 6.97573 4.14956C8.44086 2.68443 10.428 1.86133 12.5 1.86133C14.572 1.86133 16.5591 2.68443 18.0243 4.14956C19.4894 5.61468 20.3125 7.60182 20.3125 9.67383C20.3125 11.0207 19.8359 12.591 19.0094 14.2676ZM12.5 25.2988C12.5 25.2988 21.875 16.4145 21.875 9.67383C21.875 7.18742 20.8873 4.80286 19.1291 3.0447C17.371 1.28655 14.9864 0.298828 12.5 0.298828C10.0136 0.298828 7.62903 1.28655 5.87087 3.0447C4.11272 4.80286 3.125 7.18742 3.125 9.67383C3.125 16.4145 12.5 25.2988 12.5 25.2988Z" fill="#005277"/>
<path d="M12.5 12.7988C11.6712 12.7988 10.8763 12.4696 10.2903 11.8835C9.70424 11.2975 9.375 10.5026 9.375 9.67383C9.375 8.84503 9.70424 8.05017 10.2903 7.46412C10.8763 6.87807 11.6712 6.54883 12.5 6.54883C13.3288 6.54883 14.1237 6.87807 14.7097 7.46412C15.2958 8.05017 15.625 8.84503 15.625 9.67383C15.625 10.5026 15.2958 11.2975 14.7097 11.8835C14.1237 12.4696 13.3288 12.7988 12.5 12.7988ZM12.5 14.3613C13.7432 14.3613 14.9355 13.8675 15.8146 12.9884C16.6936 12.1093 17.1875 10.917 17.1875 9.67383C17.1875 8.43063 16.6936 7.23834 15.8146 6.35927C14.9355 5.48019 13.7432 4.98633 12.5 4.98633C11.2568 4.98633 10.0645 5.48019 9.18544 6.35927C8.30636 7.23834 7.8125 8.43063 7.8125 9.67383C7.8125 10.917 8.30636 12.1093 9.18544 12.9884C10.0645 13.8675 11.2568 14.3613 12.5 14.3613Z" fill="#005277"/>
</g>
<defs>
<clipPath id="clip0_342_347">
<rect width="25" height="25" fill="white" transform="translate(0 0.298828)"/>
</clipPath>
</defs>
</svg>
