<svg width="80" height="80" viewBox="0 0 80 80" fill="none" xmlns="http://www.w3.org/2000/svg">
<path d="M66.6446 29.139C66.4335 29.1393 66.2268 29.0786 66.0494 28.9642C65.8719 28.8497 65.7314 28.6864 65.6446 28.494C63.9861 24.7916 61.545 21.4926 58.4893 18.824C55.4336 16.1555 51.836 14.1808 47.944 13.0358C47.8044 12.9968 47.674 12.9305 47.5602 12.8407C47.4465 12.7508 47.3518 12.6393 47.2816 12.5125C47.2113 12.3857 47.167 12.2462 47.1511 12.1022C47.1352 11.9581 47.1482 11.8124 47.1891 11.6733C47.2301 11.5343 47.2982 11.4048 47.3897 11.2924C47.4811 11.1799 47.594 11.0868 47.7217 11.0183C47.8495 10.9499 47.9896 10.9075 48.1338 10.8937C48.2781 10.8798 48.4237 10.8948 48.5621 10.9377C52.7571 12.1713 56.6349 14.2992 59.9287 17.175C63.2225 20.0508 65.854 23.6062 67.6421 27.5965C67.7174 27.763 67.7497 27.9457 67.7361 28.1279C67.7224 28.3101 67.6633 28.486 67.5642 28.6395C67.465 28.7929 67.3289 28.9191 67.1684 29.0063C67.0078 29.0936 66.8273 29.1392 66.6446 29.139Z" fill="#F26522"/>
<path d="M31.7493 69.1078C31.6446 69.108 31.5404 69.0931 31.44 69.0634C27.2445 67.83 23.3662 65.7022 20.0718 62.8264C16.7775 59.9506 14.1455 56.3951 12.3568 52.4046C12.2394 52.1402 12.2315 51.84 12.3349 51.5697C12.4382 51.2994 12.6444 51.0811 12.9083 50.9625C13.1722 50.8438 13.4724 50.8345 13.7431 50.9366C14.0139 51.0386 14.2332 51.2438 14.3531 51.5071C16.0116 55.2097 18.4529 58.5089 21.5088 61.1774C24.5648 63.846 28.1627 65.8206 32.055 66.9653C32.3068 67.0398 32.5235 67.2026 32.6653 67.4237C32.807 67.6449 32.8645 67.9097 32.8271 68.1697C32.7897 68.4297 32.6599 68.6676 32.4616 68.8398C32.2632 69.0121 32.0095 69.1072 31.7468 69.1078H31.7493Z" fill="#EF4E0F"/>
<path d="M43.9414 27.6024V20.2824H39.2108C38.8281 18.6763 38.1906 17.1419 37.3227 15.7374L40.6714 12.3886L35.4952 7.21238L32.1464 10.563C30.7419 9.69505 29.2075 9.0576 27.6014 8.67488V3.94238H20.2814V8.67926C18.6769 9.06295 17.1435 9.69877 15.7383 10.563L12.3877 7.21238L7.21141 12.3886L10.562 15.7393C9.69779 17.1445 9.06197 18.6779 8.67828 20.2824H3.94141V27.6024H8.67141C9.05542 29.2086 9.69368 30.7432 10.562 32.148L7.21391 35.4961L12.3902 40.673L15.7383 37.3243C17.1431 38.192 18.6777 38.8294 20.2839 39.2124V43.9424H27.6014V39.2055C29.2059 38.8218 30.7393 38.186 32.1445 37.3218L35.4952 40.673L40.6714 35.4961L37.3208 32.1455C38.185 30.7403 38.8208 29.2069 39.2045 27.6024H43.9414ZM23.9414 32.3168C22.285 32.3168 20.6658 31.8256 19.2885 30.9053C17.9112 29.9851 16.8378 28.6771 16.2039 27.1467C15.57 25.6164 15.4042 23.9325 15.7273 22.3079C16.0505 20.6833 16.8481 19.191 18.0194 18.0197C19.1907 16.8485 20.6829 16.0508 22.3075 15.7277C23.9321 15.4045 25.6161 15.5704 27.1464 16.2043C28.6767 16.8382 29.9847 17.9116 30.905 19.2889C31.8252 20.6661 32.3164 22.2853 32.3164 23.9418C32.3164 26.1629 31.434 28.2932 29.8634 29.8638C28.2928 31.4344 26.1626 32.3168 23.9414 32.3168Z" fill="#F26522"/>
<path d="M76.0576 59.7186V52.3986H71.327C70.9443 50.7923 70.3068 49.2577 69.4389 47.853L72.7876 44.5042L67.6114 39.328L64.2626 42.6767C62.858 41.809 61.3236 41.1716 59.7176 40.7886V36.0586H52.3976V40.7955C50.7931 41.1792 49.2597 41.815 47.8545 42.6792L44.5039 39.328L39.3276 44.5042L42.6782 47.8555C41.814 49.2607 41.1782 50.7941 40.7945 52.3986H36.0576V59.7186H40.7876C41.1709 61.3245 41.8083 62.8588 42.6757 64.2636L39.3276 67.6123L44.5039 72.7886L47.852 69.4398C49.2567 70.3078 50.7913 70.9453 52.3976 71.328V76.0586H59.7176V71.3217C61.3221 70.938 62.8555 70.3022 64.2607 69.438L67.6114 72.7886L72.7876 67.6123L69.437 64.2617C70.3012 62.8565 70.9371 61.3231 71.3207 59.7186H76.0576ZM56.0576 64.4323C54.4012 64.4323 52.782 63.9412 51.4047 63.0209C50.0275 62.1006 48.954 60.7926 48.3201 59.2623C47.6862 57.732 47.5204 56.0481 47.8435 54.4235C48.1667 52.7989 48.9643 51.3066 50.1356 50.1353C51.3069 48.9641 52.7991 48.1664 54.4237 47.8433C56.0483 47.5201 57.7323 47.686 59.2626 48.3199C60.7929 48.9537 62.1009 50.0272 63.0212 51.4044C63.9414 52.7817 64.4326 54.4009 64.4326 56.0573C64.4326 58.2785 63.5503 60.4087 61.9796 61.9794C60.409 63.55 58.2788 64.4323 56.0576 64.4323Z" fill="#FF641A"/>
<path d="M66.642 31.747C68.6858 31.747 70.3427 30.0901 70.3427 28.0463C70.3427 26.0025 68.6858 24.3457 66.642 24.3457C64.5982 24.3457 62.9414 26.0025 62.9414 28.0463C62.9414 30.0901 64.5982 31.747 66.642 31.747Z" fill="#F26522"/>
<path d="M13.3569 55.6552C15.4007 55.6552 17.0575 53.9983 17.0575 51.9545C17.0575 49.9107 15.4007 48.2539 13.3569 48.2539C11.3131 48.2539 9.65625 49.9107 9.65625 51.9545C9.65625 53.9983 11.3131 55.6552 13.3569 55.6552Z" fill="#FF641A"/>
</svg>
