<svg width="80" height="80" viewBox="0 0 80 80" fill="none" xmlns="http://www.w3.org/2000/svg">
<rect width="80" height="80" rx="40" fill="#F26522" fill-opacity="0.1"/>
<path fill-rule="evenodd" clip-rule="evenodd" d="M32.0898 57.6244C24.7617 58.3605 19.6177 60.0885 19.6177 62.1029C19.6177 64.7858 28.7433 66.9609 40.0001 66.9609C51.257 66.9609 60.3826 64.7858 60.3826 62.1029C60.3826 60.0885 55.2386 58.3605 47.9105 57.6244C45.9673 59.7448 43.8606 61.79 41.6838 63.6109C40.707 64.4278 39.2934 64.4278 38.3166 63.6109C36.1394 61.79 34.0329 59.7449 32.0898 57.6244ZM40 13.0391C50.2076 13.0391 58.4817 21.3131 58.4817 31.5205C58.4817 46.4085 43.4208 59.7332 40.4908 62.1847C40.2041 62.4241 39.7961 62.4241 39.5094 62.1847C36.5793 59.7332 21.5185 46.4085 21.5185 31.5205C21.5184 21.3131 29.7925 13.0391 40 13.0391ZM32.6123 38.8858H37.4996V33.4619C37.4996 33.1607 37.7453 32.915 38.0465 32.915H41.9537C42.2549 32.915 42.5006 33.1607 42.5006 33.4619V38.8858H47.3879V31.2791C46.5274 31.2009 45.7271 30.8059 45.1356 30.1657C44.4722 30.8836 43.547 31.2932 42.5676 31.2932C41.5837 31.2932 40.66 30.877 40 30.149C39.3404 30.877 38.4164 31.2932 37.4322 31.2932C36.4523 31.2932 35.5287 30.8837 34.8644 30.1657C34.2727 30.8059 33.4726 31.2009 32.6122 31.2791V38.8858H32.6123ZM44.2016 27.9134L42.6692 23.0962L40.9156 23.1003L40.9261 27.7052C40.9261 28.6362 41.6112 29.4338 42.5676 29.4338C43.4216 29.4338 44.1401 28.7639 44.2016 27.9134ZM44.6106 23.0917L46.0652 27.7957C46.0652 28.6947 46.8041 29.4338 47.7033 29.4338C48.5704 29.4338 49.2288 28.7729 49.328 27.9308L46.4201 23.0878L44.6106 23.0917ZM39.0636 23.1045L37.327 23.1083L35.7985 27.9134C35.8601 28.7638 36.5785 29.4337 37.4323 29.4337C38.3892 29.4337 39.0741 28.6365 39.0741 27.705L39.0636 23.1045ZM35.3828 23.1127L33.5823 23.117L30.6725 27.9427C30.7736 28.7846 31.4317 29.4338 32.2968 29.4338C33.1959 29.4338 33.9349 28.6947 33.9349 27.7957L35.3828 23.1127ZM40 17.7708C32.403 17.7708 26.2442 23.9296 26.2442 31.5265C26.2442 39.1236 32.403 45.2822 40 45.2822C47.5971 45.2822 53.7557 39.1236 53.7557 31.5265C53.7557 23.9295 47.5971 17.7708 40 17.7708Z" fill="#F16321"/>
</svg>
