<svg width="80" height="80" viewBox="0 0 80 80" fill="none" xmlns="http://www.w3.org/2000/svg">
<rect width="80" height="80" rx="40" fill="#F26522" fill-opacity="0.1"/>
<g clip-path="url(#clip0_342_518)">
<path d="M29.8099 47.9463C27.044 47.9463 24.8025 50.1869 24.8025 52.9531C24.8025 55.7194 27.044 57.9601 29.8099 57.9601C32.5768 57.9601 34.8177 55.7194 34.8177 52.9531C34.8177 50.1869 32.5768 47.9463 29.8099 47.9463ZM29.8099 55.1299C28.6075 55.1299 27.6333 54.1555 27.6333 52.9531C27.6333 51.7502 28.6075 50.7764 29.8099 50.7764C31.0124 50.7764 31.9873 51.7502 31.9873 52.9531C31.9873 54.1555 31.0124 55.1299 29.8099 55.1299Z" fill="#F16321"/>
<path d="M56.2145 47.9463C53.4486 47.9463 51.2073 50.1869 51.2073 52.9531C51.2073 55.7194 53.4486 57.9601 56.2145 57.9601C58.9815 57.9601 61.2223 55.7194 61.2223 52.9531C61.2223 50.1869 58.9815 47.9463 56.2145 47.9463ZM56.2145 55.1299C55.0122 55.1299 54.038 54.1555 54.038 52.9531C54.038 51.7502 55.0122 50.7764 56.2145 50.7764C57.4172 50.7764 58.3921 51.7502 58.3921 52.9531C58.3921 54.1555 57.4172 55.1299 56.2145 55.1299Z" fill="#F16321"/>
<path d="M35.4431 32.5614C35.4431 33.263 34.8689 33.837 34.1674 33.837H16.5643C15.8627 33.837 15.2888 33.263 15.2888 32.5614V31.796C15.2888 31.0945 15.8628 30.5205 16.5643 30.5205H34.1674C34.8691 30.5205 35.4431 31.0945 35.4431 31.796V32.5614Z" fill="#F16321"/>
<path d="M66.0266 40.0298C64.1905 39.5525 63.1399 39.2524 62.4189 37.8601L60.0082 32.9791C59.287 31.5867 57.4138 30.4474 55.8462 30.4474H52.5489C52.5489 30.4474 52.1053 30.4567 52.1053 30.0103C52.1053 28.9869 52.1053 25.9167 52.1053 25.9167C52.1053 24.3297 51.2073 23.0312 49.297 23.0312H22.4243C19.6893 23.0312 18.3909 24.3299 18.3909 25.9167V28.4821C18.3909 28.4821 18.3909 29.2451 19.1293 29.2451C22.8888 29.2451 34.1675 29.2451 34.1675 29.2451C35.5743 29.2451 36.7187 30.3894 36.7187 31.7962V32.5616C36.7187 33.9683 35.5743 35.1127 34.1675 35.1127H19.1293C19.1293 35.1127 18.3909 35.0513 18.3909 35.8485C18.3909 36.2444 18.3909 36.5102 18.3909 36.7307C18.3909 37.4323 19.3525 37.4319 19.3525 37.4319H29.4755C30.8822 37.4319 32.0267 38.5764 32.0267 39.983V40.7484C32.0267 42.1552 30.8822 43.2995 29.4755 43.2995H19.5122C19.5122 43.2995 18.3909 43.2788 18.3909 44.1717C18.3909 45.7215 18.3909 50.3706 18.3909 50.3706C18.3909 51.9574 19.6893 53.256 21.2763 53.256C21.2763 53.256 22.4716 53.256 22.8701 53.256C23.2315 53.256 23.2848 53.0547 23.2848 52.9536C23.2848 49.3559 26.2121 46.4293 29.8099 46.4293C33.408 46.4293 36.3351 49.3562 36.3351 52.9536C36.3351 53.0551 36.3063 53.256 36.5827 53.256C39.742 53.256 49.4449 53.256 49.4449 53.256C49.6999 53.256 49.6895 53.0411 49.6895 52.9536C49.6895 49.3559 52.6167 46.4293 56.2147 46.4293C59.8126 46.4293 62.7398 49.3562 62.7398 52.9536C62.7398 53.0551 62.7372 53.256 62.8968 53.256C64.3455 53.256 66.1396 53.256 66.1396 53.256C67.7081 53.256 68.991 51.9731 68.991 50.4048V44.9879C68.9911 40.426 67.5507 40.426 66.0266 40.0298ZM60.6008 39.7761C60.6008 39.7761 54.5458 39.7761 52.485 39.7761C52.1497 39.7761 52.1052 39.4497 52.1052 39.4497V32.689C52.1052 32.689 52.0863 32.4294 52.5168 32.4294C53.0958 32.4294 54.8325 32.4294 54.8325 32.4294C56.2278 32.4294 57.8945 33.4432 58.536 34.6821L60.6813 39.0253C60.7716 39.2002 60.8681 39.3554 60.9715 39.4945C61.0478 39.5965 60.92 39.7761 60.6008 39.7761Z" fill="#F16321"/>
<path d="M30.751 40.7489C30.751 41.4505 30.177 42.0245 29.4755 42.0245H13.2755C12.5739 42.0245 12 41.4505 12 40.7489V39.9835C12 39.282 12.574 38.708 13.2755 38.708H29.4755C30.1771 38.708 30.751 39.282 30.751 39.9835V40.7489Z" fill="#F16321"/>
</g>
<defs>
<clipPath id="clip0_342_518">
<rect width="56" height="56" fill="white" transform="translate(12 12)"/>
</clipPath>
</defs>
</svg>
