<svg width="64" height="64" viewBox="0 0 64 64" fill="none" xmlns="http://www.w3.org/2000/svg">
<g clip-path="url(#clip0_350_14974)">
<path d="M23.2877 4.2127V1.0377C23.3127 -0.287305 25.2877 -0.287305 25.3002 1.0377V4.2127C25.2877 5.5377 23.3127 5.5377 23.2877 4.2127ZM4.2752 23.2252H1.1002C-0.224805 23.2502 -0.224805 25.2252 1.1002 25.2377H4.2752C4.8377 25.2377 5.2877 24.7877 5.2877 24.2252C5.2877 23.6752 4.8377 23.2252 4.2752 23.2252ZM39.1627 10.7877L41.4002 8.5502C42.3252 7.6002 40.9252 6.2002 39.9752 7.1252L37.7377 9.3627C36.8127 10.3127 38.2127 11.7127 39.1627 10.7877ZM9.4252 10.7877C10.3752 11.7127 11.7752 10.3127 10.8502 9.3627L8.6127 7.1252C7.6627 6.2002 6.2627 7.6002 7.1877 8.5502L9.4252 10.7877ZM63.8377 8.6127L54.9752 37.3002C54.8252 37.8002 54.3127 38.0877 53.8127 37.9877L47.6252 36.7627L40.7877 43.2502C40.0127 46.0627 40.5627 48.1877 42.5002 49.8002C43.2752 50.5377 44.1502 51.3752 44.0877 52.7377C44.0377 53.8877 43.4127 54.6002 42.9502 55.1127C41.5252 56.4127 43.0877 57.3252 44.4002 58.2127C45.4502 58.9002 46.5377 59.6127 46.3002 60.7752C46.0377 62.1252 44.5752 62.1752 42.3502 62.2627C40.4502 62.3377 37.8502 62.4252 34.6127 63.1502C32.3127 63.6877 30.0752 64.3377 27.6877 63.6627C26.3877 63.3252 24.3377 62.5877 23.5752 61.2127H22.0252C20.0627 61.2127 18.4627 59.6127 18.4627 57.6502V56.1002H17.6252C14.4627 56.1377 12.8627 52.1252 15.1502 49.9877C13.3752 48.4002 13.8877 45.1252 16.1377 44.2127C16.0627 41.4002 14.8502 38.7377 12.6627 36.7002C1.8502 26.6502 8.53769 8.3127 23.2002 7.3627C30.9252 6.8752 37.9627 11.6752 40.3877 18.9002C47.2377 15.3502 55.5877 10.9877 62.4002 7.4377C63.1752 7.0002 64.1252 7.8002 63.8377 8.6127ZM18.1627 43.8627H30.4377C30.5877 40.9252 31.7252 38.1752 33.6252 36.1127C33.3627 35.7627 32.0002 33.9627 31.7627 33.6502L17.4502 30.8377C24.3127 27.2752 31.7377 23.4002 38.6002 19.8252C33.3002 3.97519 10.5002 6.93769 9.3377 23.6252C9.1502 28.0002 10.8627 32.2252 14.0502 35.2127C16.5502 37.5627 18.0002 40.6252 18.1627 43.8627ZM16.0752 47.4252C16.0752 48.2752 16.7752 48.9752 17.6252 48.9752H30.9502C33.0002 48.9502 32.9752 45.9252 30.9502 45.8877H17.6252C16.8002 45.8627 16.0627 46.6002 16.0752 47.4252ZM30.9502 54.0877C32.9877 54.0377 32.9877 51.0502 30.9502 51.0002H17.6252C15.5877 51.0627 15.6002 54.0377 17.6377 54.0877C17.6252 54.0877 30.9502 54.0877 30.9502 54.0877ZM26.5502 59.2002C27.4002 59.2002 28.1002 58.5002 28.1002 57.6502V56.1002H20.4877V57.6502C20.4877 58.5002 21.1752 59.2002 22.0377 59.2002H26.5502ZM38.7877 42.9502L34.8627 37.7627C33.3752 39.5002 32.5127 41.7877 32.4377 44.2127C34.6252 45.1252 35.2377 48.3752 33.4252 50.0002C35.7127 52.1377 34.1127 56.1627 30.9502 56.1127H30.1127V57.6627C30.1127 59.5752 28.6002 61.1252 26.7002 61.2127C29.0627 62.4127 31.6627 61.8627 34.1752 61.2002C38.4627 60.2752 40.7627 60.3752 43.7127 60.2002C41.2502 58.7752 38.9002 56.4877 41.4377 53.8002C42.3627 52.7502 42.3127 52.3877 41.1127 51.2752C38.8002 49.3627 37.8627 46.2877 38.7877 42.9502ZM48.0877 23.3877L47.8377 23.5627L33.7877 32.9877L34.0502 33.3377L36.3252 36.3502L39.3377 40.3377L40.5127 34.3627C42.4877 31.0877 45.9877 26.5252 48.0877 23.3877ZM45.2002 36.3002C44.9877 36.2627 42.4002 35.7502 42.2877 35.7252L41.4877 39.8252L45.2002 36.3002ZM61.2002 10.3252C56.8502 12.5877 49.7002 16.3127 45.2627 18.6252C38.1627 22.3252 30.6002 26.2502 23.4877 29.9627L32.1252 31.6627L51.4627 18.7002C51.7377 18.5377 52.0877 18.4877 52.3877 18.6127C52.9877 18.8127 53.2377 19.6002 52.8627 20.1127C49.6377 24.6877 46.4252 29.2752 43.2127 33.8502L43.4002 33.8877L53.3252 35.8377L61.2002 10.3252ZM9.4252 37.6752L7.1877 39.9127C6.5502 40.5127 7.0377 41.6627 7.9002 41.6377C8.1627 41.6377 8.4127 41.5377 8.6127 41.3377L10.8502 39.1002C11.2502 38.7002 11.2502 38.0627 10.8502 37.6752C10.4627 37.2877 9.8252 37.2877 9.4252 37.6752Z" fill="#F26522"/>
</g>
<defs>
<clipPath id="clip0_350_14974">
<rect width="64" height="64" fill="white"/>
</clipPath>
</defs>
</svg>
