<svg width="64" height="64" viewBox="0 0 64 64" fill="none" xmlns="http://www.w3.org/2000/svg">
<path d="M47.5074 33.6008C47.14 37.1623 45.5619 40.4899 43.0366 43.028C40.5113 45.5661 37.1917 47.161 33.6322 47.5464C33.5605 47.5456 33.4894 47.5591 33.423 47.5861C33.3566 47.6131 33.2963 47.6532 33.2456 47.7039C33.1949 47.7545 33.1549 47.8149 33.1279 47.8812C33.1008 47.9476 33.0873 48.0188 33.0882 48.0904V59.732C33.0882 60.0206 32.9736 60.2973 32.7695 60.5014C32.5655 60.7054 32.2887 60.82 32.0002 60.82C31.7116 60.82 31.4349 60.7054 31.2309 60.5014C31.0268 60.2973 30.9122 60.0206 30.9122 59.732V55.508C30.9018 55.3672 30.8412 55.2348 30.7413 55.1349C30.6415 55.035 30.509 54.9744 30.3682 54.964C25.5292 54.5724 20.9393 52.6556 17.259 49.4894C13.5788 46.3233 10.998 42.0711 9.8882 37.3448C9.84688 37.2048 9.83418 37.0579 9.85083 36.9129C9.86749 36.7678 9.91316 36.6276 9.98514 36.5006C10.0571 36.3736 10.1539 36.2623 10.2698 36.1735C10.3857 36.0847 10.5182 36.0201 10.6596 35.9836C10.8009 35.947 10.9482 35.9393 11.0926 35.9609C11.237 35.9825 11.3755 36.0329 11.5 36.1092C11.6245 36.1855 11.7324 36.286 11.8172 36.4048C11.9021 36.5236 11.9621 36.6583 11.9938 36.8008C12.9805 41.0432 15.2811 44.8658 18.5678 47.7239C21.8545 50.5819 25.9596 52.3295 30.2978 52.7176C30.4386 52.788 30.573 52.7176 30.7074 52.5832C30.7784 52.5431 30.8359 52.4827 30.8724 52.4097C30.9089 52.3368 30.9227 52.2545 30.9122 52.1736V48.0904C30.9131 48.0188 30.8996 47.9476 30.8725 47.8812C30.8455 47.8149 30.8055 47.7545 30.7548 47.7039C30.7041 47.6532 30.6438 47.6131 30.5774 47.5861C30.511 47.5591 30.4399 47.5456 30.3682 47.5464C26.8256 47.1518 23.5198 45.5733 20.9858 43.0664C18.4523 40.5202 16.8706 37.1806 16.5058 33.6072C16.485 33.4765 16.4194 33.357 16.3201 33.2694C16.2208 33.1818 16.0941 33.1316 15.9618 33.1272H4.3202C4.02315 33.1272 3.73828 33.0092 3.52824 32.7992C3.3182 32.5892 3.2002 32.3043 3.2002 32.0072C3.2002 31.7102 3.3182 31.4253 3.52824 31.2153C3.73828 31.0052 4.02315 30.8872 4.3202 30.8872H8.7426C8.87456 30.8817 9.00062 30.831 9.09966 30.7436C9.1987 30.6563 9.2647 30.5375 9.2866 30.4072C9.57701 25.5755 11.3723 20.9558 14.4207 17.1958C17.469 13.4358 21.6177 10.7241 26.285 9.44084C26.5676 9.38719 26.8601 9.44372 27.1024 9.59884C27.3447 9.75395 27.5184 9.9959 27.588 10.275C27.6576 10.5542 27.6177 10.8494 27.4766 11.1001C27.3355 11.3508 27.1037 11.5379 26.829 11.6232C22.6534 12.7492 18.9336 15.151 16.1891 18.4933C13.4446 21.8356 11.8123 25.9516 11.5202 30.2664C11.5021 30.3459 11.5029 30.4285 11.5223 30.5077C11.5417 30.5869 11.5793 30.6604 11.6321 30.7225C11.6849 30.7846 11.7514 30.8336 11.8264 30.8655C11.9014 30.8974 11.9828 30.9114 12.0642 30.9064H15.9362C16.0685 30.9021 16.1952 30.8518 16.2945 30.7642C16.3938 30.6767 16.4594 30.5572 16.4802 30.4264C16.8426 26.8584 18.4201 23.5234 20.9485 20.9799C23.4768 18.4364 26.8024 16.839 30.3682 16.4552C30.4399 16.4561 30.511 16.4426 30.5774 16.4156C30.6438 16.3885 30.7041 16.3485 30.7548 16.2978C30.8055 16.2471 30.8455 16.1868 30.8725 16.1204C30.8996 16.054 30.9131 15.9829 30.9122 15.9112V4.26964C30.9122 3.98109 31.0268 3.70435 31.2309 3.50031C31.4349 3.29627 31.7116 3.18164 32.0002 3.18164C32.2887 3.18164 32.5655 3.29627 32.7695 3.50031C32.9736 3.70435 33.0882 3.98109 33.0882 4.26964V17.4728C33.0955 17.6269 33.0705 17.7808 33.0149 17.9246C32.9593 18.0685 32.8742 18.1991 32.7651 18.3082C32.6561 18.4173 32.5254 18.5023 32.3816 18.558C32.2377 18.6136 32.0839 18.6385 31.9298 18.6312C20.0962 18.6312 14.1826 33.1208 22.5474 41.492C30.9122 49.8632 45.1906 43.8728 45.3954 32.0008C45.3937 31.8575 45.4206 31.7152 45.4747 31.5825C45.5288 31.4497 45.6089 31.3291 45.7102 31.2277C45.8116 31.1263 45.9322 31.0462 46.065 30.9922C46.1978 30.9381 46.34 30.9111 46.4834 30.9128H59.6802C59.9772 30.9128 60.2621 31.0308 60.4722 31.2409C60.6822 31.4509 60.8002 31.7358 60.8002 32.0328C60.8002 32.3299 60.6822 32.6148 60.4722 32.8248C60.2621 33.0348 59.9772 33.1528 59.6802 33.1528H55.3282C55.1932 33.1474 55.0612 33.1943 54.9599 33.2837C54.8586 33.3731 54.7956 33.4982 54.7842 33.6328C54.431 38.4947 52.5507 43.1208 49.4119 46.8504C46.273 50.58 42.036 53.2226 37.3058 54.4008C35.8786 54.74 35.3858 52.564 36.8258 52.2248C41.0501 51.1745 44.8384 48.8254 47.6571 45.5084C50.4759 42.1914 52.1829 38.0737 52.5378 33.7352C52.5558 33.6557 52.5551 33.5732 52.5357 33.494C52.5163 33.4148 52.4787 33.3413 52.4259 33.2792C52.3731 33.2171 52.3066 33.1681 52.2316 33.1362C52.1566 33.1042 52.0751 33.0902 51.9938 33.0952H48.0514C47.9191 33.0996 47.7924 33.1498 47.6931 33.2374C47.5938 33.325 47.5282 33.4445 47.5074 33.5752V33.6008ZM56.3202 15.5016L48.4546 23.3224C48.2624 23.5311 47.9956 23.6553 47.7122 23.668H42.4706C42.3275 23.6806 42.1894 23.7266 42.0674 23.8024L32.749 33.1912C32.5395 33.387 32.2622 33.4938 31.9754 33.4893C31.6887 33.4847 31.415 33.3691 31.2118 33.1667C31.0086 32.9644 30.8919 32.6911 30.8861 32.4044C30.8804 32.1177 30.9861 31.84 31.181 31.6296L40.4994 22.2344C40.5621 22.203 40.6146 22.1545 40.6508 22.0945C40.6871 22.0344 40.7056 21.9654 40.7042 21.8952V16.6408C40.7029 16.4895 40.7322 16.3394 40.7905 16.1997C40.8488 16.06 40.9349 15.9336 41.0434 15.828L48.8642 8.01364C49.0152 7.85038 49.2119 7.73637 49.4286 7.68648C49.6454 7.63659 49.8721 7.65313 50.0793 7.73394C50.2865 7.81475 50.4646 7.95608 50.5903 8.13953C50.716 8.32298 50.7836 8.54004 50.7842 8.76244V13.0504C50.7932 13.1918 50.8535 13.3249 50.9536 13.425C51.0537 13.5252 51.1869 13.5854 51.3282 13.5944H55.5458C55.7708 13.5885 55.9923 13.6505 56.1815 13.7724C56.3707 13.8942 56.5188 14.0702 56.6065 14.2774C56.6943 14.4847 56.7175 14.7135 56.6733 14.9342C56.6291 15.1548 56.5194 15.357 56.3586 15.5144L56.3202 15.5016ZM47.3602 21.2616L51.917 16.7048C51.9962 16.6317 52.0521 16.5369 52.0779 16.4323C52.1037 16.3276 52.0982 16.2177 52.0621 16.1161C52.0259 16.0146 51.9608 15.9258 51.8747 15.861C51.7886 15.7961 51.6854 15.758 51.5778 15.7512H49.6578C49.3606 15.7582 49.0725 15.648 48.8558 15.4445C48.6391 15.2409 48.5111 14.9603 48.4994 14.6632V12.8008C48.4989 12.6906 48.466 12.583 48.4049 12.4913C48.3438 12.3995 48.2571 12.3278 48.1555 12.2848C48.054 12.2419 47.9421 12.2297 47.8337 12.2498C47.7254 12.2698 47.6252 12.3212 47.5458 12.3976L43.0658 16.9544C42.9462 17.0586 42.8726 17.2058 42.861 17.364V20.9032C42.8601 20.9749 42.8736 21.046 42.9007 21.1124C42.9277 21.1788 42.9677 21.2391 43.0184 21.2898C43.0691 21.3405 43.1294 21.3805 43.1958 21.4076C43.2622 21.4346 43.3333 21.4481 43.405 21.4472H47.0082C47.149 21.4472 47.2834 21.4472 47.3474 21.3064L47.3602 21.2616ZM41.2418 32.0136C41.2443 33.8435 40.7039 35.6331 39.689 37.1557C38.6741 38.6783 37.2303 39.8657 35.5402 40.5674C33.8503 41.2691 31.9901 41.4537 30.1951 41.0978C28.4001 40.7419 26.7511 39.8615 25.4567 38.568C24.1624 37.2745 23.2808 35.6261 22.9237 33.8314C22.5665 32.0367 22.7498 30.1764 23.4504 28.4859C24.1509 26.7954 25.3373 25.3508 26.8592 24.3348C28.3812 23.3188 30.1703 22.7772 32.0002 22.7784C32.2752 22.7995 32.532 22.9236 32.7194 23.1259C32.9068 23.3283 33.011 23.5939 33.011 23.8696C33.011 24.1454 32.9068 24.411 32.7194 24.6133C32.532 24.8157 32.2752 24.9398 32.0002 24.9608C30.1331 24.9608 28.3424 25.7026 27.0222 27.0228C25.7019 28.3431 24.9602 30.1337 24.9602 32.0008C24.9602 33.868 25.7019 35.6586 27.0222 36.9789C28.3424 38.2991 30.1331 39.0408 32.0002 39.0408C36.0834 39.0408 38.8034 35.9816 39.0018 32.0008C38.9954 31.8464 39.0209 31.6924 39.0766 31.5482C39.1323 31.4041 39.2171 31.2729 39.3256 31.1629C39.4342 31.053 39.5643 30.9665 39.7077 30.9089C39.8511 30.8514 40.0048 30.8239 40.1593 30.8283C40.3138 30.8328 40.4657 30.8689 40.6056 30.9345C40.7455 31.0002 40.8704 31.0939 40.9726 31.2099C41.0747 31.3258 41.1519 31.4616 41.1993 31.6087C41.2467 31.7558 41.2634 31.911 41.2482 32.0648L41.2418 32.0136Z" fill="#F26522"/>
</svg>
