<svg width="80" height="80" viewBox="0 0 80 80" fill="none" xmlns="http://www.w3.org/2000/svg">
<path fill-rule="evenodd" clip-rule="evenodd" d="M38.2045 58.7602C38.0416 58.736 37.8851 58.6798 37.7441 58.5948C37.6031 58.5097 37.4803 58.3976 37.3829 58.2648C37.2854 58.132 37.2153 57.9813 37.1765 57.8212C37.1377 57.6612 37.131 57.495 37.1568 57.3324C37.1826 57.1697 37.2404 57.0138 37.3269 56.8737C37.4133 56.7335 37.5267 56.6118 37.6605 56.5158C37.7942 56.4197 37.9457 56.3511 38.1061 56.3139C38.2666 56.2768 38.4328 56.2718 38.5952 56.2992L47.8536 57.7797C49.248 58.0027 49.838 57.3316 49.9381 56.2231C50.0856 54.5891 49.052 52.4575 47.3208 52.1806L30.4362 49.4806C29.6525 49.343 28.8489 49.3673 28.0749 49.5522C27.301 49.7371 26.5731 50.0786 25.9363 50.5556L15.7188 57.9553L23.8808 69.2247L25.9225 67.7459C26.8234 67.0747 27.8516 66.5942 28.9444 66.3339C30.0373 66.0735 31.1717 66.0387 32.2784 66.2316L47.5753 68.678C48.3591 68.8156 49.1627 68.7912 49.9366 68.6063C50.7106 68.4214 51.4384 68.0799 52.0753 67.6028L72.7355 52.6406C73.7394 51.9136 73.7603 51.2419 73.1028 50.5156C71.8584 49.1417 69.0894 48.5644 67.2723 49.8803L56.7666 57.4897C53.8727 59.5856 50.9644 60.8011 47.463 60.2413L38.2045 58.7608V58.7602ZM46.0483 16.067C44.2672 16.067 42.5261 16.5952 41.0452 17.5847C39.5643 18.5742 38.41 19.9807 37.7284 21.6262C37.0469 23.2717 36.8685 25.0824 37.216 26.8293C37.5635 28.5761 38.4212 30.1807 39.6806 31.4401C40.9401 32.6995 42.5447 33.5572 44.2915 33.9046C46.0384 34.2521 47.8491 34.0737 49.4946 33.3921C51.1401 32.7105 52.5465 31.5563 53.536 30.0753C54.5255 28.5944 55.0536 26.8533 55.0536 25.0722C55.0536 23.8896 54.8207 22.7186 54.3682 21.626C53.9156 20.5334 53.2523 19.5407 52.4161 18.7044C51.5799 17.8682 50.5871 17.2049 49.4945 16.7524C48.4019 16.2999 47.2309 16.067 46.0483 16.067ZM39.4277 26.3525C39.1965 26.1177 39.0677 25.801 39.0694 25.4715C39.0711 25.142 39.2032 24.8266 39.4369 24.5942C39.6705 24.3619 39.9866 24.2315 40.3161 24.2316C40.6456 24.2317 40.9617 24.3622 41.1952 24.5947L43.7031 27.1031L50.2969 20.8195C50.4152 20.705 50.555 20.6151 50.7082 20.5549C50.8615 20.4948 51.0251 20.4655 51.1897 20.4689C51.3544 20.4723 51.5167 20.5083 51.6673 20.5748C51.8179 20.6412 51.9539 20.7369 52.0674 20.8561C52.1808 20.9754 52.2696 21.116 52.3284 21.2698C52.3873 21.4235 52.4151 21.5874 52.4103 21.752C52.4055 21.9165 52.3682 22.0785 52.3004 22.2286C52.2327 22.3786 52.1359 22.5138 52.0156 22.6263L44.5403 29.7488C44.3041 29.9732 43.9895 30.0963 43.6637 30.0917C43.338 30.0871 43.027 29.9552 42.7972 29.7242L39.4272 26.3525H39.4277ZM42.7544 4.875H49.3428V8.07813C51.6311 8.51905 53.806 9.42001 55.7358 10.7264L58.0014 8.46078L62.6602 13.1195L60.3945 15.3852C61.701 17.3149 62.6019 19.4898 63.0428 21.7781H66.2459V28.3666H63.0428C62.6019 30.6548 61.7009 32.8298 60.3945 34.7595L62.6602 37.0252L58.0014 41.6839L55.7358 39.4183C53.806 40.7246 51.6311 41.6255 49.3428 42.0664V45.2695H42.7544V42.0664C40.4661 41.6255 38.2912 40.7246 36.3614 39.4183L34.0958 41.6839L29.4375 37.0245L31.7031 34.7589C30.3968 32.8291 29.4958 30.6542 29.0548 28.3659H25.8517V21.7781H29.0548C29.4957 19.4898 30.3967 17.3149 31.7031 15.3852L29.4375 13.1195L34.0963 8.46078L36.3619 10.7264C38.2915 9.42013 40.4663 8.51918 42.7544 8.07813V4.875ZM57.5539 25.072C57.5539 27.3476 56.8792 29.572 55.615 31.4641C54.3508 33.3561 52.5539 34.8308 50.4516 35.7017C48.3493 36.5725 46.0359 36.8004 43.8041 36.3565C41.5723 35.9125 39.5222 34.8168 37.9132 33.2077C36.3041 31.5987 35.2083 29.5486 34.7644 27.3168C34.3204 25.085 34.5483 22.7717 35.4191 20.6693C36.2899 18.567 37.7645 16.7701 39.6566 15.5059C41.5486 14.2417 43.7731 13.5669 46.0486 13.5669C49.0999 13.5672 52.026 14.7795 54.1836 16.9371C56.3412 19.0946 57.5535 22.0208 57.5539 25.072ZM23.8519 73.4403L21.5259 75.125L6.44922 60.4745L11.7044 56.6684L23.8519 73.4403Z" fill="#F26522"/>
</svg>
