<svg width="80" height="80" viewBox="0 0 80 80" fill="none" xmlns="http://www.w3.org/2000/svg">
<rect width="80" height="80" rx="40" fill="#F26522" fill-opacity="0.1"/>
<path d="M22.5 24.25C23.4665 24.25 24.25 23.4665 24.25 22.5C24.25 21.5335 23.4665 20.75 22.5 20.75C21.5335 20.75 20.75 21.5335 20.75 22.5C20.75 23.4665 21.5335 24.25 22.5 24.25Z" fill="#F16321"/>
<path d="M28.2794 27.0422C31.2645 24.332 35.098 22.7423 39.125 22.5447V19.7508C38.2951 19.5385 37.5719 19.0292 37.0924 18.3193L25.9712 22.2122C25.979 22.3085 26 22.4012 26 22.5001C25.997 23.1229 25.8256 23.7333 25.5039 24.2667L28.2794 27.0422Z" fill="#F16321"/>
<path d="M40 18.125C40.9665 18.125 41.75 17.3415 41.75 16.375C41.75 15.4085 40.9665 14.625 40 14.625C39.0335 14.625 38.25 15.4085 38.25 16.375C38.25 17.3415 39.0335 18.125 40 18.125Z" fill="#F16321"/>
<path d="M19.7507 39.125H22.5446C22.7422 35.098 24.3319 31.2645 27.0421 28.2794L24.2666 25.5039C23.7332 25.8256 23.1228 25.997 22.4999 26C22.4011 26 22.3083 25.979 22.2121 25.9712L18.3201 37.0933C19.0294 37.5728 19.5384 38.2956 19.7507 39.125Z" fill="#F16321"/>
<path d="M36.5 40.875C35.5717 40.875 34.6815 41.2437 34.0251 41.9001C33.3687 42.5565 33 43.4467 33 44.375V47.875H47V44.375C47 43.4467 46.6313 42.5565 45.9749 41.9001C45.3185 41.2437 44.4283 40.875 43.5 40.875H36.5Z" fill="#F16321"/>
<path d="M16.375 41.75C17.3415 41.75 18.125 40.9665 18.125 40C18.125 39.0335 17.3415 38.25 16.375 38.25C15.4085 38.25 14.625 39.0335 14.625 40C14.625 40.9665 15.4085 41.75 16.375 41.75Z" fill="#F16321"/>
<path d="M57.5 24.25C58.4665 24.25 59.25 23.4665 59.25 22.5C59.25 21.5335 58.4665 20.75 57.5 20.75C56.5335 20.75 55.75 21.5335 55.75 22.5C55.75 23.4665 56.5335 24.25 57.5 24.25Z" fill="#F16321"/>
<path d="M40 36.5C41.933 36.5 43.5 34.933 43.5 33C43.5 31.067 41.933 29.5 40 29.5C38.067 29.5 36.5 31.067 36.5 33C36.5 34.933 38.067 36.5 40 36.5Z" fill="#F16321"/>
<path d="M24.25 40C24.25 43.1151 25.1737 46.1602 26.9044 48.7502C28.635 51.3403 31.0948 53.359 33.9727 54.5511C36.8507 55.7432 40.0175 56.0551 43.0727 55.4474C46.1279 54.8397 48.9343 53.3396 51.1369 51.1369C53.3396 48.9343 54.8397 46.1279 55.4474 43.0727C56.0551 40.0175 55.7432 36.8507 54.5511 33.9727C53.359 31.0948 51.3403 28.635 48.7502 26.9044C46.1602 25.1737 43.1151 24.25 40 24.25C35.8243 24.2549 31.8211 25.9158 28.8684 28.8684C25.9158 31.8211 24.2549 35.8243 24.25 40ZM48.75 44.375V48.75C48.75 48.9821 48.6578 49.2046 48.4937 49.3687C48.3296 49.5328 48.1071 49.625 47.875 49.625H32.125C31.8929 49.625 31.6704 49.5328 31.5063 49.3687C31.3422 49.2046 31.25 48.9821 31.25 48.75V44.375C31.2514 42.983 31.805 41.6485 32.7892 40.6642C33.7735 39.68 35.108 39.1264 36.5 39.125H43.5C44.892 39.1264 46.2265 39.68 47.2108 40.6642C48.195 41.6485 48.7486 42.983 48.75 44.375ZM45.25 33C45.25 34.0384 44.9421 35.0534 44.3652 35.9167C43.7883 36.7801 42.9684 37.453 42.0091 37.8504C41.0498 38.2477 39.9942 38.3517 38.9758 38.1491C37.9574 37.9466 37.0219 37.4465 36.2877 36.7123C35.5535 35.9781 35.0534 35.0426 34.8509 34.0242C34.6483 33.0058 34.7523 31.9502 35.1496 30.9909C35.547 30.0316 36.2199 29.2117 37.0833 28.6348C37.9466 28.0579 38.9616 27.75 40 27.75C41.392 27.7514 42.7265 28.305 43.7108 29.2892C44.695 30.2735 45.2486 31.608 45.25 33Z" fill="#F16321"/>
<path d="M40.875 22.5447C44.9036 22.7413 48.7388 24.3311 51.725 27.0422L54.5005 24.2667C54.1773 23.7338 54.0044 23.1233 54 22.5001C54 22.4012 54.021 22.3085 54.0289 22.2122L42.9076 18.3193C42.4281 19.0292 41.7049 19.5385 40.875 19.7508V22.5447Z" fill="#F16321"/>
<path d="M63.625 41.75C64.5915 41.75 65.375 40.9665 65.375 40C65.375 39.0335 64.5915 38.25 63.625 38.25C62.6585 38.25 61.875 39.0335 61.875 40C61.875 40.9665 62.6585 41.75 63.625 41.75Z" fill="#F16321"/>
<path d="M57.5 59.25C58.4665 59.25 59.25 58.4665 59.25 57.5C59.25 56.5335 58.4665 55.75 57.5 55.75C56.5335 55.75 55.75 56.5335 55.75 57.5C55.75 58.4665 56.5335 59.25 57.5 59.25Z" fill="#F16321"/>
<path d="M57.4999 26C56.8771 25.997 56.2666 25.8256 55.7333 25.5039L52.9578 28.2794C55.6673 31.2649 57.2569 35.0982 57.4553 39.125H60.2491C60.4615 38.2956 60.9704 37.5728 61.6798 37.0933L57.7878 25.9712C57.6906 25.979 57.5988 26 57.4999 26Z" fill="#F16321"/>
<path d="M60.2491 40.875H57.4553C57.2586 44.9036 55.6689 48.7388 52.9578 51.725L55.7333 54.5005C56.2664 54.1777 56.8767 54.0048 57.4999 54C57.5988 54 57.6906 54.021 57.7878 54.0289L61.6798 42.9067C60.9704 42.4273 60.4615 41.7044 60.2491 40.875Z" fill="#F16321"/>
<path d="M22.5 59.25C23.4665 59.25 24.25 58.4665 24.25 57.5C24.25 56.5335 23.4665 55.75 22.5 55.75C21.5335 55.75 20.75 56.5335 20.75 57.5C20.75 58.4665 21.5335 59.25 22.5 59.25Z" fill="#F16321"/>
<path d="M39.125 57.4555C35.098 57.2579 31.2645 55.6682 28.2794 52.958L25.5039 55.7335C25.8256 56.2669 25.997 56.8773 26 57.5001C26 57.599 25.979 57.6918 25.9712 57.788L37.0924 61.6809C37.5719 60.9711 38.2951 60.4617 39.125 60.2494V57.4555Z" fill="#F16321"/>
<path d="M22.5447 40.875H19.7508C19.5385 41.7049 19.0292 42.4281 18.3193 42.9076L22.2122 54.0289C22.3085 54.021 22.4012 54 22.5001 54C23.1229 54.003 23.7333 54.1745 24.2667 54.4961L27.0422 51.725C24.3311 48.7388 22.7413 44.9036 22.5447 40.875Z" fill="#F16321"/>
<path d="M51.725 52.958C48.7387 55.6691 44.9035 57.2588 40.875 57.4555V60.2494C41.7049 60.4617 42.4281 60.9711 42.9076 61.6809L54.0289 57.788C54.021 57.6918 54 57.599 54 57.5001C54.0032 56.8773 54.1746 56.2669 54.4961 55.7335L51.725 52.958Z" fill="#F16321"/>
<path d="M40 65.375C40.9665 65.375 41.75 64.5915 41.75 63.625C41.75 62.6585 40.9665 61.875 40 61.875C39.0335 61.875 38.25 62.6585 38.25 63.625C38.25 64.5915 39.0335 65.375 40 65.375Z" fill="#F16321"/>
</svg>
