<svg width="80" height="80" viewBox="0 0 80 80" fill="none" xmlns="http://www.w3.org/2000/svg">
<g clip-path="url(#clip0_342_453)">
<path fill-rule="evenodd" clip-rule="evenodd" d="M28.3769 41.1617C26.3677 41.1621 24.4036 40.5666 22.7329 39.4506C21.0622 38.3346 19.76 36.7483 18.9909 34.8922C18.2218 33.0361 18.0204 30.9936 18.4122 29.023C18.8039 27.0525 19.7713 25.2423 21.1918 23.8215C22.6124 22.4008 24.4224 21.4331 26.3929 21.0411C28.3634 20.649 30.4059 20.8501 32.2622 21.6189C34.1184 22.3877 35.7049 23.6897 36.8212 25.3602C37.9374 27.0308 38.5332 28.9948 38.5331 31.0039C38.5299 33.6967 37.4588 36.2782 35.5549 38.1824C33.651 40.0866 31.0696 41.158 28.3769 41.1617ZM34.8694 78.0241H21.892C20.0569 78.0226 18.2932 77.3129 16.9687 76.0428C15.6442 74.7727 14.861 73.0403 14.7827 71.2069H41.9711C41.8944 73.0395 41.1129 74.7718 39.7896 76.042C38.4663 77.3122 36.7036 78.0223 34.8694 78.0241ZM45.8381 65.6008C45.8367 66.578 45.4478 67.5148 44.7569 68.2058C44.0659 68.8968 43.1291 69.2856 42.1519 69.287H14.6022C14.1162 69.2902 13.6343 69.1972 13.1844 69.0134C12.7345 68.8296 12.3253 68.5586 11.9806 68.2161C11.6358 67.8735 11.3621 67.4662 11.1754 67.0175C10.9887 66.5687 10.8926 66.0875 10.8926 65.6015C10.8926 65.1155 10.9887 64.6342 11.1754 64.1855C11.3621 63.7368 11.6358 63.3294 11.9806 62.9869C12.3253 62.6443 12.7345 62.3734 13.1844 62.1896C13.6343 62.0058 14.1162 61.9128 14.6022 61.9159H42.1516C43.1286 61.917 44.0654 62.3055 44.7565 62.9963C45.4475 63.6871 45.8364 64.6237 45.8378 65.6008H45.8381ZM14.7756 59.9961H27.4219V43.0402C24.3944 42.8 21.5687 41.4278 19.5079 39.197C17.4471 36.9663 16.3026 34.0409 16.3026 31.0039C16.3026 27.967 17.4471 25.0415 19.5079 22.8108C21.5687 20.58 24.3944 19.2078 27.4219 18.9677V1.97656C12.2175 2.48359 1.5771e-07 15.0109 1.5771e-07 30.3369C-0.000488544 34.9726 1.1348 39.5378 3.30657 43.6333C5.47835 47.7288 8.62046 51.2298 12.4581 53.8302C13.1815 54.3062 13.7731 54.9571 14.1781 55.7225C14.5831 56.488 14.7886 57.3432 14.7753 58.2091V59.9961H14.7756ZM50.4345 34.3989V27.6073L46.4322 27.1159C46.2414 27.0933 46.0619 27.0137 45.917 26.8876C45.7721 26.7615 45.6685 26.5947 45.6197 26.4089C45.2121 24.8866 44.605 23.4249 43.8142 22.0617C43.7187 21.8959 43.6748 21.7053 43.6882 21.5144C43.7016 21.3235 43.7716 21.1409 43.8894 20.99L46.372 17.8109L41.5723 13.008L38.3906 15.4909C38.2405 15.609 38.0584 15.6792 37.8678 15.6923C37.6773 15.7055 37.4872 15.6609 37.3223 15.5645C35.9591 14.7741 34.4968 14.1684 32.9739 13.7633C32.7886 13.7138 32.6224 13.6102 32.4964 13.4656C32.3704 13.321 32.2905 13.1422 32.2669 12.9519L31.7703 8.94875H29.3398V18.9677C32.3673 19.2078 35.193 20.58 37.2538 22.8108C39.3146 25.0415 40.4591 27.967 40.4591 31.0039C40.4591 34.0409 39.3146 36.9663 37.2538 39.197C35.193 41.4278 32.3673 42.8 29.3398 43.0402V53.0572H31.7698L32.2664 49.0542C32.29 48.8641 32.37 48.6854 32.496 48.5411C32.622 48.3969 32.7883 48.2936 32.9734 48.2445C34.4963 47.8393 35.9586 47.2336 37.3219 46.4431C37.4867 46.3465 37.6768 46.3018 37.8674 46.3149C38.058 46.3281 38.2402 46.3984 38.3902 46.5167L41.5723 49.0003L46.372 44.1973L43.8894 41.0181C43.7716 40.8669 43.7016 40.6841 43.6882 40.4929C43.6748 40.3017 43.7187 40.1108 43.8142 39.9447C44.6056 38.582 45.2127 37.1203 45.6197 35.598C45.6685 35.4123 45.7721 35.2457 45.9171 35.1198C46.062 34.9939 46.2415 34.9147 46.4322 34.8923L50.4345 34.3994V34.3989ZM63.833 19.8813H51.8412C51.7142 19.8796 51.588 19.9033 51.4701 19.9508C51.3522 19.9983 51.245 20.0687 51.1545 20.158C51.0641 20.2473 50.9923 20.3537 50.9433 20.471C50.8942 20.5882 50.869 20.7141 50.869 20.8412C50.869 20.9683 50.8942 21.0941 50.9433 21.2114C50.9923 21.3286 51.0641 21.435 51.1545 21.5243C51.245 21.6136 51.3522 21.6841 51.4701 21.7316C51.588 21.7791 51.7142 21.8027 51.8412 21.8011H63.9458C64.7809 21.8011 65.3902 21.2794 65.7583 20.2523L68.2866 13.2128C68.5108 13.2457 68.7371 13.2622 68.9638 13.2622C70.1217 13.2638 71.2411 12.8459 72.1148 12.0859C72.9885 11.3259 73.5574 10.2752 73.7162 9.12812C73.8751 7.98107 73.6131 6.81531 72.9788 5.84649C72.3445 4.87767 71.3808 4.17135 70.2659 3.8582C69.1511 3.54506 67.9605 3.64627 66.9146 4.14312C65.8686 4.63997 65.0379 5.49883 64.5762 6.56082C64.1146 7.62282 64.0532 8.81607 64.4034 9.91985C64.7535 11.0236 65.4916 11.9632 66.4811 12.5648L63.9531 19.6045C63.9209 19.7 63.8806 19.7926 63.8327 19.8813H63.833ZM68.9638 48.7453C68.7372 48.7456 68.5109 48.7618 68.2866 48.7936L65.7589 41.7553C65.3902 40.7266 64.7809 40.2067 63.9464 40.2067H51.8412C51.7142 40.2051 51.588 40.2287 51.4701 40.2762C51.3522 40.3238 51.245 40.3942 51.1545 40.4835C51.0641 40.5728 50.9923 40.6792 50.9433 40.7964C50.8942 40.9137 50.869 41.0395 50.869 41.1666C50.869 41.2937 50.8942 41.4196 50.9433 41.5368C50.9923 41.6541 51.0641 41.7605 51.1545 41.8498C51.245 41.9391 51.3522 42.0095 51.4701 42.057C51.588 42.1046 51.7142 42.1282 51.8412 42.1266H63.833C63.8817 42.2148 63.922 42.3075 63.9534 42.4033L66.4811 49.443C65.4943 50.0439 64.7585 50.9818 64.4098 52.0832C64.061 53.1847 64.1229 54.3751 64.5839 55.4345C65.0449 56.4939 65.874 57.3505 66.9177 57.8459C67.9614 58.3413 69.1492 58.4421 70.2615 58.1295C71.3737 57.817 72.3352 57.1122 72.9681 56.1457C73.6009 55.1791 73.8624 54.0161 73.7042 52.8716C73.5459 51.7272 72.9786 50.6787 72.1072 49.9202C71.2357 49.1616 70.1191 48.7443 68.9638 48.7453ZM52.3528 30.8441V31.1634C52.3532 31.3756 52.4376 31.579 52.5877 31.729C52.7377 31.8791 52.9411 31.9635 53.1533 31.9639H70.5283C70.7662 33.1254 71.4268 34.1572 72.382 34.8594C73.3373 35.5616 74.5193 35.8842 75.6988 35.7647C76.8784 35.6451 77.9716 35.0919 78.7665 34.2123C79.5615 33.3327 80.0016 32.1894 80.0016 31.0038C80.0016 29.8182 79.5615 28.6748 78.7665 27.7952C77.9716 26.9156 76.8784 26.3624 75.6988 26.2428C74.5193 26.1233 73.3373 26.4459 72.382 27.1481C71.4268 27.8503 70.7662 28.8821 70.5283 30.0436H53.1533C52.9411 30.044 52.7377 30.1284 52.5877 30.2785C52.4376 30.4285 52.3532 30.6319 52.3528 30.8441Z" fill="#F16321"/>
</g>
<defs>
<clipPath id="clip0_342_453">
<rect width="80" height="80" fill="white"/>
</clipPath>
</defs>
</svg>
