<svg width="80" height="80" viewBox="0 0 80 80" fill="none" xmlns="http://www.w3.org/2000/svg">
<g clip-path="url(#clip0_342_434)">
<path d="M9.40703 52.0371L0.0884343 61.3557C-0.0682845 61.5051 -0.00969073 61.7752 0.208747 61.8401L11.4319 65.2493C13.0241 65.7337 14.2647 66.9743 14.7489 68.5663L18.1581 79.7895C18.2228 80.0079 18.4931 80.0665 18.6425 79.9098L31.1109 67.4413C21.8858 65.1498 14.2697 59.3985 9.40703 52.0371Z" fill="#F16321"/>
<path d="M79.9116 61.3557L70.593 52.0371C65.765 59.3459 58.1725 65.1352 48.8888 67.4415L61.3572 79.9099C61.5066 80.0666 61.7769 80.008 61.8416 79.7896L65.2508 68.5665C65.7352 66.9743 66.9758 65.7337 68.568 65.2495L79.7911 61.8402C80.0102 61.7751 80.068 61.5046 79.9116 61.3557Z" fill="#F16321"/>
<path d="M71.9164 31.9164C71.9164 14.3184 57.5996 0 40 0C22.4005 0 8.08362 14.3184 8.08362 31.9164C8.08362 47.8281 19.7991 61.09 35.0955 63.4578C54.4716 66.4719 71.9164 51.3903 71.9164 31.9164ZM15.121 39.6944C9.85737 22.8661 22.5283 5.85453 40 5.85453C59.5177 5.85453 72.4182 26.8309 62.9041 44.3489C51.9207 64.4975 22.0338 61.6827 15.121 39.6944Z" fill="#F16321"/>
<path d="M40 10.541C28.2144 10.541 18.6239 20.1299 18.6239 31.9155C18.6239 49.2549 38.2828 59.3668 52.3606 49.3448C55.3769 47.2038 57.8331 44.277 59.4136 40.8574C65.9809 26.719 55.5117 10.541 40 10.541ZM50.7887 28.9173C50.5219 29.1154 37.5355 38.754 37.4609 38.8093C36.523 39.5084 35.1886 39.4146 34.3547 38.5312C28.3895 32.174 28.8667 32.6816 28.7236 32.5313C27.7212 31.464 27.9305 29.7376 29.1845 28.944C29.1861 28.9424 29.1877 28.9409 29.1892 28.9409C30.1205 28.3565 31.3627 28.4924 32.1423 29.3237C33.4037 30.668 32.5547 29.7632 36.3437 33.8001C36.7522 33.4955 41.5581 29.9302 48.17 25.0237C49.2091 24.2518 50.6778 24.469 51.448 25.508C52.1539 26.4555 52.1514 27.9076 50.7887 28.9173Z" fill="#F16321"/>
</g>
<defs>
<clipPath id="clip0_342_434">
<rect width="80" height="80" fill="white"/>
</clipPath>
</defs>
</svg>
